G04*
G04 #@! TF.GenerationSoftware,Altium Limited,Altium Designer,22.9.1 (49)*
G04*
G04 Layer_Physical_Order=1*
G04 Layer_Color=255*
%FSLAX44Y44*%
%MOMM*%
G71*
G04*
G04 #@! TF.SameCoordinates,4D2C501F-B6D0-499F-BBB1-D8B4D61A6739*
G04*
G04*
G04 #@! TF.FilePolarity,Positive*
G04*
G01*
G75*
%ADD10C,0.1524*%
%ADD14R,1.0000X0.7000*%
%ADD15R,0.6000X0.7000*%
%ADD16R,0.8000X0.8000*%
%ADD21C,0.5080*%
%ADD22C,1.5240*%
%ADD23C,0.6350*%
D10*
X61080Y119380D02*
Y139580D01*
X60960Y139700D02*
X61080Y139580D01*
X70960Y139700D02*
X81200D01*
X61080Y119380D02*
X61160Y119460D01*
X85700Y66700D02*
X101600Y50800D01*
X78040Y66700D02*
X85700D01*
Y85700D02*
X101600Y101600D01*
X78040Y85700D02*
X85700D01*
X43180Y76200D02*
X54415D01*
X52915Y85700D02*
X54415D01*
X25400Y101600D02*
X37015D01*
X52915Y85700D01*
X25400Y50800D02*
X41300Y66700D01*
X54415D01*
X70960Y139700D02*
X71040Y139620D01*
D14*
X78040Y85700D02*
D03*
Y76200D02*
D03*
Y66700D02*
D03*
X54415D02*
D03*
Y76200D02*
D03*
Y85700D02*
D03*
D15*
X70960Y139700D02*
D03*
X60960D02*
D03*
D16*
X76080Y119380D02*
D03*
X61080D02*
D03*
D21*
X75960Y119260D02*
X76080Y119380D01*
X75960Y101198D02*
Y119260D01*
X67960Y93198D02*
X75960Y101198D01*
X67960Y80096D02*
Y93198D01*
Y80096D02*
X70936Y77120D01*
X77120D01*
X78040Y76200D01*
X101600D01*
D22*
Y25400D02*
D03*
Y50800D02*
D03*
Y76200D02*
D03*
Y101600D02*
D03*
Y127000D02*
D03*
X25400Y25400D02*
D03*
Y50800D02*
D03*
Y76200D02*
D03*
Y101600D02*
D03*
Y127000D02*
D03*
D23*
X81200Y139700D02*
D03*
X43180Y76200D02*
D03*
M02*
