G04*
G04 #@! TF.GenerationSoftware,Altium Limited,Altium Designer,22.9.1 (49)*
G04*
G04 Layer_Color=32896*
%FSLAX44Y44*%
%MOMM*%
G71*
G04*
G04 #@! TF.SameCoordinates,4D2C501F-B6D0-499F-BBB1-D8B4D61A6739*
G04*
G04*
G04 #@! TF.FilePolarity,Positive*
G04*
G01*
G75*
%ADD13C,0.1270*%
D13*
X82550Y110487D02*
X77472D01*
X80011D01*
Y102870D01*
X73663Y107948D02*
X71124D01*
X69854Y106679D01*
Y102870D01*
X73663D01*
X74932Y104140D01*
X73663Y105409D01*
X69854D01*
X67315Y110487D02*
Y102870D01*
Y106679D01*
X66045Y107948D01*
X63506D01*
X62237Y106679D01*
Y102870D01*
X55889D02*
X58428D01*
X59697Y104140D01*
Y106679D01*
X58428Y107948D01*
X55889D01*
X54619Y106679D01*
Y105409D01*
X59697D01*
X52080Y107948D02*
Y102870D01*
Y105409D01*
X50810Y106679D01*
X49541Y107948D01*
X48271D01*
X105410Y125727D02*
Y118109D01*
X101601D01*
X100332Y119379D01*
Y124457D01*
X101601Y125727D01*
X105410D01*
X93984Y118109D02*
X96523D01*
X97793Y119379D01*
Y121918D01*
X96523Y123188D01*
X93984D01*
X92714Y121918D01*
Y120648D01*
X97793D01*
X90175Y118109D02*
X86366D01*
X85097Y119379D01*
X86366Y120648D01*
X88905D01*
X90175Y121918D01*
X88905Y123188D01*
X85097D01*
X82557Y118109D02*
X80018D01*
X81288D01*
Y123188D01*
X82557D01*
X73670Y115570D02*
X72401D01*
X71131Y116840D01*
Y123188D01*
X74940D01*
X76209Y121918D01*
Y119379D01*
X74940Y118109D01*
X71131D01*
X68592D02*
Y123188D01*
X64783D01*
X63514Y121918D01*
Y118109D01*
X57166D02*
X59705D01*
X60974Y119379D01*
Y121918D01*
X59705Y123188D01*
X57166D01*
X55896Y121918D01*
Y120648D01*
X60974D01*
X48278Y125727D02*
Y118109D01*
X52087D01*
X53357Y119379D01*
Y121918D01*
X52087Y123188D01*
X48278D01*
X38122Y125727D02*
Y118109D01*
X34313D01*
X33043Y119379D01*
Y120648D01*
X34313Y121918D01*
X38122D01*
X34313D01*
X33043Y123188D01*
Y124457D01*
X34313Y125727D01*
X38122D01*
X30504Y123188D02*
Y119379D01*
X29235Y118109D01*
X25426D01*
Y116840D01*
X26695Y115570D01*
X27965D01*
X25426Y118109D02*
Y123188D01*
X85092Y128270D02*
X90170D01*
X85092Y133348D01*
Y134618D01*
X86361Y135887D01*
X88900D01*
X90170Y134618D01*
X77474Y128270D02*
X82552D01*
X77474Y133348D01*
Y134618D01*
X78744Y135887D01*
X81283D01*
X82552Y134618D01*
X74935Y132079D02*
X69857D01*
X67317Y128270D02*
X64778D01*
X66048D01*
Y135887D01*
X67317Y134618D01*
X60969Y128270D02*
X58430D01*
X59700D01*
Y135887D01*
X60969Y134618D01*
X54622Y132079D02*
X49543D01*
X47004Y128270D02*
X44465D01*
X45734D01*
Y135887D01*
X47004Y134618D01*
X40656D02*
X39386Y135887D01*
X36847D01*
X35578Y134618D01*
Y129540D01*
X36847Y128270D01*
X39386D01*
X40656Y129540D01*
Y134618D01*
M02*
