G04*
G04 #@! TF.GenerationSoftware,Altium Limited,Altium Designer,22.9.1 (49)*
G04*
G04 Layer_Color=32896*
%FSLAX44Y44*%
%MOMM*%
G71*
G04*
G04 #@! TF.SameCoordinates,05789482-0283-4914-9F0E-1FA18675A4EC*
G04*
G04*
G04 #@! TF.FilePolarity,Positive*
G04*
G01*
G75*
%ADD13C,0.1270*%
D13*
X105410Y26667D02*
Y19049D01*
X101601D01*
X100332Y20319D01*
Y25397D01*
X101601Y26667D01*
X105410D01*
X93984Y19049D02*
X96523D01*
X97793Y20319D01*
Y22858D01*
X96523Y24128D01*
X93984D01*
X92714Y22858D01*
Y21588D01*
X97793D01*
X90175Y19049D02*
X86366D01*
X85097Y20319D01*
X86366Y21588D01*
X88905D01*
X90175Y22858D01*
X88905Y24128D01*
X85097D01*
X82557Y19049D02*
X80018D01*
X81288D01*
Y24128D01*
X82557D01*
X73670Y16510D02*
X72401D01*
X71131Y17780D01*
Y24128D01*
X74940D01*
X76209Y22858D01*
Y20319D01*
X74940Y19049D01*
X71131D01*
X68592D02*
Y24128D01*
X64783D01*
X63514Y22858D01*
Y19049D01*
X57166D02*
X59705D01*
X60974Y20319D01*
Y22858D01*
X59705Y24128D01*
X57166D01*
X55896Y22858D01*
Y21588D01*
X60974D01*
X48278Y26667D02*
Y19049D01*
X52087D01*
X53357Y20319D01*
Y22858D01*
X52087Y24128D01*
X48278D01*
X38122Y26667D02*
Y19049D01*
X34313D01*
X33043Y20319D01*
Y21588D01*
X34313Y22858D01*
X38122D01*
X34313D01*
X33043Y24128D01*
Y25397D01*
X34313Y26667D01*
X38122D01*
X30504Y24128D02*
Y20319D01*
X29235Y19049D01*
X25426D01*
Y17780D01*
X26695Y16510D01*
X27965D01*
X25426Y19049D02*
Y24128D01*
X83822Y30480D02*
X88900D01*
X83822Y35558D01*
Y36828D01*
X85091Y38098D01*
X87630D01*
X88900Y36828D01*
X76204Y30480D02*
X81283D01*
X76204Y35558D01*
Y36828D01*
X77474Y38098D01*
X80013D01*
X81283Y36828D01*
X73665Y34289D02*
X68587D01*
X66047Y30480D02*
X63508D01*
X64778D01*
Y38098D01*
X66047Y36828D01*
X59699Y30480D02*
X57160D01*
X58430D01*
Y38098D01*
X59699Y36828D01*
X53351Y34289D02*
X48273D01*
X45734Y30480D02*
X43195D01*
X44464D01*
Y38098D01*
X45734Y36828D01*
X39386D02*
X38116Y38098D01*
X35577D01*
X34308Y36828D01*
Y31750D01*
X35577Y30480D01*
X38116D01*
X39386Y31750D01*
Y36828D01*
X80010Y15237D02*
X74932D01*
X77471D01*
Y7620D01*
X71123Y12698D02*
X68584D01*
X67314Y11429D01*
Y7620D01*
X71123D01*
X72393Y8890D01*
X71123Y10159D01*
X67314D01*
X64775Y15237D02*
Y7620D01*
Y11429D01*
X63505Y12698D01*
X60966D01*
X59697Y11429D01*
Y7620D01*
X53349D02*
X55888D01*
X57157Y8890D01*
Y11429D01*
X55888Y12698D01*
X53349D01*
X52079Y11429D01*
Y10159D01*
X57157D01*
X49540Y12698D02*
Y7620D01*
Y10159D01*
X48270Y11429D01*
X47001Y12698D01*
X45731D01*
M02*
