G04*
G04 #@! TF.GenerationSoftware,Altium Limited,Altium Designer,22.9.1 (49)*
G04*
G04 Layer_Color=65535*
%FSLAX44Y44*%
%MOMM*%
G71*
G04*
G04 #@! TF.SameCoordinates,05789482-0283-4914-9F0E-1FA18675A4EC*
G04*
G04*
G04 #@! TF.FilePolarity,Positive*
G04*
G01*
G75*
%ADD10C,0.1000*%
%ADD11C,0.2540*%
%ADD12C,0.1524*%
%ADD13C,0.1270*%
D10*
X53840Y147320D02*
G03*
X53840Y147320I-500J0D01*
G01*
Y87630D02*
G03*
X53840Y87630I-500J0D01*
G01*
D11*
X88900Y12700D02*
X114300D01*
X88900D02*
Y139700D01*
X114300Y12700D02*
Y139700D01*
X88900Y165100D02*
X101600D01*
X88900Y139700D02*
Y165100D01*
Y139700D02*
X114300D01*
Y165100D01*
X101600D02*
X114300D01*
X12700Y12700D02*
X38100D01*
X12700D02*
Y139700D01*
X38100Y12700D02*
Y139700D01*
X12700Y165100D02*
X25400D01*
X12700Y139700D02*
Y165100D01*
Y139700D02*
X38100D01*
Y165100D01*
X25400D02*
X38100D01*
D12*
X59944Y195832D02*
Y188214D01*
X63753D01*
X65022Y189484D01*
Y190753D01*
X63753Y192023D01*
X59944D01*
X63753D01*
X65022Y193292D01*
Y194562D01*
X63753Y195832D01*
X59944D01*
X67561Y193292D02*
Y188214D01*
Y190753D01*
X68831Y192023D01*
X70101Y193292D01*
X71370D01*
X78988Y188214D02*
X76449D01*
X75179Y189484D01*
Y192023D01*
X76449Y193292D01*
X78988D01*
X80257Y192023D01*
Y190753D01*
X75179D01*
X84066Y193292D02*
X86605D01*
X87875Y192023D01*
Y188214D01*
X84066D01*
X82797Y189484D01*
X84066Y190753D01*
X87875D01*
X90414Y188214D02*
Y195832D01*
Y190753D02*
X94223Y193292D01*
X90414Y190753D02*
X94223Y188214D01*
X99301D02*
X101840D01*
X103110Y189484D01*
Y192023D01*
X101840Y193292D01*
X99301D01*
X98032Y192023D01*
Y189484D01*
X99301Y188214D01*
X105649Y193292D02*
Y189484D01*
X106919Y188214D01*
X110728D01*
Y193292D01*
X114536Y194562D02*
Y193292D01*
X113267D01*
X115806D01*
X114536D01*
Y189484D01*
X115806Y188214D01*
X11682Y194561D02*
X10413Y195831D01*
X7874D01*
X6604Y194561D01*
Y189483D01*
X7874Y188213D01*
X10413D01*
X11682Y189483D01*
X14222Y193291D02*
Y188213D01*
Y190752D01*
X15491Y192022D01*
X16761Y193291D01*
X18030D01*
X21839D02*
Y189483D01*
X23109Y188213D01*
X26917D01*
Y186944D01*
X25648Y185674D01*
X24378D01*
X26917Y188213D02*
Y193291D01*
X29457Y188213D02*
X33265D01*
X34535Y189483D01*
X33265Y190752D01*
X30726D01*
X29457Y192022D01*
X30726Y193291D01*
X34535D01*
X38344Y194561D02*
Y193291D01*
X37074D01*
X39613D01*
X38344D01*
Y189483D01*
X39613Y188213D01*
X44692Y193291D02*
X47231D01*
X48500Y192022D01*
Y188213D01*
X44692D01*
X43422Y189483D01*
X44692Y190752D01*
X48500D01*
X51040Y188213D02*
X53579D01*
X52309D01*
Y195831D01*
X51040D01*
X86614Y171704D02*
X89153D01*
X87884D01*
Y179321D01*
X86614Y178052D01*
X98040Y179321D02*
X95501Y178052D01*
X92962Y175513D01*
Y172974D01*
X94232Y171704D01*
X96771D01*
X98040Y172974D01*
Y174243D01*
X96771Y175513D01*
X92962D01*
X100580Y171704D02*
Y179321D01*
X103119Y176782D01*
X105658Y179321D01*
Y171704D01*
X108197Y179321D02*
Y171704D01*
Y175513D01*
X113275D01*
Y179321D01*
Y171704D01*
X115815Y176782D02*
X120893D01*
X115815Y171704D01*
X120893D01*
X9144Y170434D02*
X11683D01*
X10414D01*
Y178051D01*
X9144Y176782D01*
X20570Y170434D02*
X15492D01*
X20570Y175512D01*
Y176782D01*
X19301Y178051D01*
X16761D01*
X15492Y176782D01*
X23110Y170434D02*
Y178051D01*
X25649Y175512D01*
X28188Y178051D01*
Y170434D01*
X30727Y178051D02*
Y170434D01*
Y174243D01*
X35805D01*
Y178051D01*
Y170434D01*
X38345Y175512D02*
X43423D01*
X38345Y170434D01*
X43423D01*
D13*
X49106Y25822D02*
X48259Y26668D01*
X46566D01*
X45720Y25822D01*
Y22436D01*
X46566Y21590D01*
X48259D01*
X49106Y22436D01*
X50798Y21590D02*
X52491D01*
X51645D01*
Y26668D01*
X50798Y25822D01*
X55030D02*
X55877Y26668D01*
X57569D01*
X58416Y25822D01*
Y24976D01*
X57569Y24129D01*
X56723D01*
X57569D01*
X58416Y23283D01*
Y22436D01*
X57569Y21590D01*
X55877D01*
X55030Y22436D01*
X60109Y26668D02*
X63494D01*
Y25822D01*
X60109Y22436D01*
Y21590D01*
X65187Y25822D02*
X66033Y26668D01*
X67726D01*
X68573Y25822D01*
Y24976D01*
X67726Y24129D01*
X66880D01*
X67726D01*
X68573Y23283D01*
Y22436D01*
X67726Y21590D01*
X66033D01*
X65187Y22436D01*
X70265Y25822D02*
X71112Y26668D01*
X72805D01*
X73651Y25822D01*
Y24976D01*
X72805Y24129D01*
X73651Y23283D01*
Y22436D01*
X72805Y21590D01*
X71112D01*
X70265Y22436D01*
Y23283D01*
X71112Y24129D01*
X70265Y24976D01*
Y25822D01*
X71112Y24129D02*
X72805D01*
X46566Y156632D02*
X45719Y157478D01*
X44026D01*
X43180Y156632D01*
Y153246D01*
X44026Y152400D01*
X45719D01*
X46566Y153246D01*
X48258D02*
X49105Y152400D01*
X50798D01*
X51644Y153246D01*
Y156632D01*
X50798Y157478D01*
X49105D01*
X48258Y156632D01*
Y155786D01*
X49105Y154939D01*
X51644D01*
X53337Y156632D02*
X54183Y157478D01*
X55876D01*
X56722Y156632D01*
Y153246D01*
X55876Y152400D01*
X54183D01*
X53337Y153246D01*
Y156632D01*
X58415D02*
X59261Y157478D01*
X60954D01*
X61801Y156632D01*
Y153246D01*
X60954Y152400D01*
X59261D01*
X58415Y153246D01*
Y156632D01*
X66879Y152400D02*
X63493D01*
X66879Y155786D01*
Y156632D01*
X66033Y157478D01*
X64340D01*
X63493Y156632D01*
X45720Y35558D02*
Y30480D01*
X49106D01*
X54184Y34712D02*
X53337Y35558D01*
X51645D01*
X50798Y34712D01*
Y31326D01*
X51645Y30480D01*
X53337D01*
X54184Y31326D01*
X59262Y34712D02*
X58416Y35558D01*
X56723D01*
X55877Y34712D01*
Y33866D01*
X56723Y33019D01*
X58416D01*
X59262Y32173D01*
Y31326D01*
X58416Y30480D01*
X56723D01*
X55877Y31326D01*
X64341Y34712D02*
X63494Y35558D01*
X61802D01*
X60955Y34712D01*
Y31326D01*
X61802Y30480D01*
X63494D01*
X64341Y31326D01*
X43180Y166368D02*
Y161290D01*
X46566D01*
X51644Y165522D02*
X50798Y166368D01*
X49105D01*
X48258Y165522D01*
Y162136D01*
X49105Y161290D01*
X50798D01*
X51644Y162136D01*
X56722Y165522D02*
X55876Y166368D01*
X54183D01*
X53337Y165522D01*
Y164676D01*
X54183Y163829D01*
X55876D01*
X56722Y162983D01*
Y162136D01*
X55876Y161290D01*
X54183D01*
X53337Y162136D01*
X61801Y165522D02*
X60954Y166368D01*
X59261D01*
X58415Y165522D01*
Y162136D01*
X59261Y161290D01*
X60954D01*
X61801Y162136D01*
X9314Y81280D02*
Y82973D01*
Y82126D01*
X4235D01*
X5082Y81280D01*
X9314Y88897D02*
Y85512D01*
X5928Y88897D01*
X5082D01*
X4235Y88051D01*
Y86358D01*
X5082Y85512D01*
X9314Y90590D02*
X4235D01*
X5928Y92283D01*
X4235Y93976D01*
X9314D01*
X10160Y95669D02*
Y99054D01*
X4235Y100747D02*
X9314Y104133D01*
X4235D02*
X9314Y100747D01*
X9314Y109211D02*
X9314Y105825D01*
X5928Y109211D01*
X5082D01*
X4235Y108365D01*
Y106672D01*
X5082Y105825D01*
X9313Y115570D02*
Y117263D01*
Y116416D01*
X4235D01*
X5082Y115570D01*
X9313Y123188D02*
Y119802D01*
X5928Y123188D01*
X5082D01*
X4235Y122341D01*
Y120648D01*
X5082Y119802D01*
X9313Y124880D02*
X4235D01*
X5928Y126573D01*
X4235Y128266D01*
X9313D01*
X10160Y129959D02*
Y133344D01*
X4235Y135037D02*
X9313Y138423D01*
X4235D02*
X9313Y135037D01*
Y140115D02*
Y141808D01*
Y140962D01*
X4235D01*
X5082Y140115D01*
X117686Y142240D02*
Y140547D01*
Y141393D01*
X122765D01*
X121918Y142240D01*
X122765Y134622D02*
X121918Y136315D01*
X120226Y138008D01*
X118533D01*
X117686Y137162D01*
Y135469D01*
X118533Y134622D01*
X119379D01*
X120226Y135469D01*
Y138008D01*
X117686Y132930D02*
X122765D01*
X121072Y131237D01*
X122765Y129544D01*
X117686D01*
X116840Y127851D02*
Y124466D01*
X122765Y122773D02*
X117686Y119387D01*
X122765D02*
X117686Y122773D01*
Y117695D02*
Y116002D01*
Y116848D01*
X122765D01*
X121918Y117695D01*
X117686Y110490D02*
Y108797D01*
Y109644D01*
X122765D01*
X121918Y110490D01*
X122765Y102872D02*
X121918Y104565D01*
X120226Y106258D01*
X118533D01*
X117686Y105412D01*
Y103719D01*
X118533Y102872D01*
X119379D01*
X120226Y103719D01*
Y106258D01*
X117686Y101180D02*
X122765D01*
X121072Y99487D01*
X122765Y97794D01*
X117686D01*
X116840Y96101D02*
Y92716D01*
X122765Y91023D02*
X117686Y87637D01*
X122765D02*
X117686Y91023D01*
X117686Y82559D02*
X117686Y85945D01*
X121072Y82559D01*
X121918D01*
X122765Y83405D01*
Y85098D01*
X121918Y85945D01*
X120014Y29211D02*
X120649Y29846D01*
Y31115D01*
X120014Y31750D01*
X117475D01*
X116840Y31115D01*
Y29846D01*
X117475Y29211D01*
X118744D01*
Y30480D01*
X116840Y27941D02*
X120649D01*
X116840Y25402D01*
X120649D01*
Y24132D02*
X116840D01*
Y22228D01*
X117475Y21593D01*
X120014D01*
X120649Y22228D01*
Y24132D01*
X121284Y74931D02*
X121919Y75566D01*
Y76835D01*
X121284Y77470D01*
X118745D01*
X118110Y76835D01*
Y75566D01*
X118745Y74931D01*
X120014D01*
Y76200D01*
X118110Y73661D02*
X121919D01*
X118110Y71122D01*
X121919D01*
Y69852D02*
X118110D01*
Y67948D01*
X118745Y67313D01*
X121284D01*
X121919Y67948D01*
Y69852D01*
X121284Y53341D02*
X121919Y53976D01*
Y55245D01*
X121284Y55880D01*
X118745D01*
X118110Y55245D01*
Y53976D01*
X118745Y53341D01*
X120014D01*
Y54610D01*
X118110Y52071D02*
X121919D01*
X118110Y49532D01*
X121919D01*
Y48262D02*
X118110D01*
Y46358D01*
X118745Y45723D01*
X121284D01*
X121919Y46358D01*
Y48262D01*
X120014Y156211D02*
X120649Y156846D01*
Y158115D01*
X120014Y158750D01*
X117475D01*
X116840Y158115D01*
Y156846D01*
X117475Y156211D01*
X118744D01*
Y157480D01*
X116840Y154941D02*
X120649D01*
X116840Y152402D01*
X120649D01*
Y151132D02*
X116840D01*
Y149228D01*
X117475Y148593D01*
X120014D01*
X120649Y149228D01*
Y151132D01*
X6986Y151129D02*
X6351Y150494D01*
Y149225D01*
X6986Y148590D01*
X9525D01*
X10160Y149225D01*
Y150494D01*
X9525Y151129D01*
X8256D01*
Y149860D01*
X10160Y152399D02*
X6351D01*
X10160Y154938D01*
X6351D01*
Y156208D02*
X10160D01*
Y158112D01*
X9525Y158747D01*
X6986D01*
X6351Y158112D01*
Y156208D01*
X6986Y48259D02*
X6351Y47624D01*
Y46355D01*
X6986Y45720D01*
X9525D01*
X10160Y46355D01*
Y47624D01*
X9525Y48259D01*
X8256D01*
Y46990D01*
X10160Y49529D02*
X6351D01*
X10160Y52068D01*
X6351D01*
Y53338D02*
X10160D01*
Y55242D01*
X9525Y55877D01*
X6986D01*
X6351Y55242D01*
Y53338D01*
X5716Y69849D02*
X5081Y69214D01*
Y67945D01*
X5716Y67310D01*
X8255D01*
X8890Y67945D01*
Y69214D01*
X8255Y69849D01*
X6986D01*
Y68580D01*
X8890Y71119D02*
X5081D01*
X8890Y73658D01*
X5081D01*
Y74928D02*
X8890D01*
Y76832D01*
X8255Y77467D01*
X5716D01*
X5081Y76832D01*
Y74928D01*
X6986Y21589D02*
X6351Y20954D01*
Y19685D01*
X6986Y19050D01*
X9525D01*
X10160Y19685D01*
Y20954D01*
X9525Y21589D01*
X8256D01*
Y20320D01*
X10160Y22859D02*
X6351D01*
X10160Y25398D01*
X6351D01*
Y26668D02*
X10160D01*
Y28572D01*
X9525Y29207D01*
X6986D01*
X6351Y28572D01*
Y26668D01*
X41911Y132505D02*
X42757D01*
X44450Y134197D01*
X42757Y135890D01*
X41911D01*
X44450Y134197D02*
X46989D01*
Y137583D02*
Y139276D01*
Y138429D01*
X41911D01*
X42757Y137583D01*
X68158Y44449D02*
Y43603D01*
X69851Y41910D01*
X71544Y43603D01*
Y44449D01*
X69851Y41910D02*
Y39371D01*
X76622D02*
X73236D01*
X76622Y42756D01*
Y43603D01*
X75776Y44449D01*
X74083D01*
X73236Y43603D01*
X114724Y11429D02*
X113031D01*
X113877D01*
Y7197D01*
X113031Y6351D01*
X112184D01*
X111338Y7197D01*
X119802Y6351D02*
X116416D01*
X119802Y9736D01*
Y10583D01*
X118956Y11429D01*
X117263D01*
X116416Y10583D01*
X10160Y11429D02*
X8467D01*
X9314D01*
Y7197D01*
X8467Y6351D01*
X7621D01*
X6774Y7197D01*
X11853Y6351D02*
X13546D01*
X12699D01*
Y11429D01*
X11853Y10583D01*
M02*
