G04*
G04 #@! TF.GenerationSoftware,Altium Limited,Altium Designer,22.9.1 (49)*
G04*
G04 Layer_Physical_Order=2*
G04 Layer_Color=16711680*
%FSLAX44Y44*%
%MOMM*%
G71*
G04*
G04 #@! TF.SameCoordinates,05789482-0283-4914-9F0E-1FA18675A4EC*
G04*
G04*
G04 #@! TF.FilePolarity,Positive*
G04*
G01*
G75*
%ADD18C,1.5240*%
%ADD19C,0.6350*%
G36*
X121820Y5179D02*
X5179D01*
Y198020D01*
X121820D01*
Y5179D01*
D02*
G37*
%LPC*%
G36*
X102938Y162560D02*
X102870D01*
Y153670D01*
X111760D01*
Y153738D01*
X111068Y156322D01*
X109730Y158638D01*
X107838Y160530D01*
X105522Y161868D01*
X102938Y162560D01*
D02*
G37*
G36*
X26738D02*
X26670D01*
Y153670D01*
X35560D01*
Y153738D01*
X34868Y156322D01*
X33530Y158638D01*
X31638Y160530D01*
X29322Y161868D01*
X26738Y162560D01*
D02*
G37*
G36*
X100330D02*
X100262D01*
X97678Y161868D01*
X95362Y160530D01*
X93470Y158638D01*
X92132Y156322D01*
X91440Y153738D01*
Y153670D01*
X100330D01*
Y162560D01*
D02*
G37*
G36*
X24130D02*
X24062D01*
X21478Y161868D01*
X19162Y160530D01*
X17270Y158638D01*
X15932Y156322D01*
X15240Y153738D01*
Y153670D01*
X24130D01*
Y162560D01*
D02*
G37*
G36*
X111760Y151130D02*
X102870D01*
Y142240D01*
X102938D01*
X105522Y142932D01*
X107838Y144270D01*
X109730Y146162D01*
X111068Y148478D01*
X111760Y151062D01*
Y151130D01*
D02*
G37*
G36*
X100330D02*
X91440D01*
Y151062D01*
X92132Y148478D01*
X93470Y146162D01*
X95362Y144270D01*
X97678Y142932D01*
X100262Y142240D01*
X100330D01*
Y151130D01*
D02*
G37*
G36*
X35560D02*
X26670D01*
Y142240D01*
X26738D01*
X29322Y142932D01*
X31638Y144270D01*
X33530Y146162D01*
X34868Y148478D01*
X35560Y151062D01*
Y151130D01*
D02*
G37*
G36*
X24130D02*
X15240D01*
Y151062D01*
X15932Y148478D01*
X17270Y146162D01*
X19162Y144270D01*
X21478Y142932D01*
X24062Y142240D01*
X24130D01*
Y151130D01*
D02*
G37*
G36*
X102938Y137160D02*
X100262D01*
X97678Y136468D01*
X95362Y135130D01*
X93470Y133238D01*
X92132Y130922D01*
X91440Y128338D01*
Y125662D01*
X92132Y123078D01*
X93470Y120762D01*
X95362Y118870D01*
X97678Y117532D01*
X100262Y116840D01*
X102938D01*
X105522Y117532D01*
X107838Y118870D01*
X109730Y120762D01*
X111068Y123078D01*
X111760Y125662D01*
Y128338D01*
X111068Y130922D01*
X109730Y133238D01*
X107838Y135130D01*
X105522Y136468D01*
X102938Y137160D01*
D02*
G37*
G36*
X26738D02*
X24062D01*
X21478Y136468D01*
X19162Y135130D01*
X17270Y133238D01*
X15932Y130922D01*
X15240Y128338D01*
Y125662D01*
X15932Y123078D01*
X17270Y120762D01*
X19162Y118870D01*
X21478Y117532D01*
X24062Y116840D01*
X26738D01*
X29322Y117532D01*
X31638Y118870D01*
X33530Y120762D01*
X34868Y123078D01*
X35560Y125662D01*
Y128338D01*
X34868Y130922D01*
X33530Y133238D01*
X31638Y135130D01*
X29322Y136468D01*
X26738Y137160D01*
D02*
G37*
G36*
X102938Y111760D02*
X100262D01*
X97678Y111068D01*
X95362Y109730D01*
X93470Y107838D01*
X92132Y105522D01*
X91440Y102938D01*
Y100262D01*
X92132Y97678D01*
X93470Y95362D01*
X95362Y93470D01*
X97678Y92132D01*
X100262Y91440D01*
X102938D01*
X105522Y92132D01*
X107838Y93470D01*
X109730Y95362D01*
X111068Y97678D01*
X111760Y100262D01*
Y102938D01*
X111068Y105522D01*
X109730Y107838D01*
X107838Y109730D01*
X105522Y111068D01*
X102938Y111760D01*
D02*
G37*
G36*
X26738D02*
X24062D01*
X21478Y111068D01*
X19162Y109730D01*
X17270Y107838D01*
X15932Y105522D01*
X15240Y102938D01*
Y100262D01*
X15932Y97678D01*
X17270Y95362D01*
X19162Y93470D01*
X21478Y92132D01*
X24062Y91440D01*
X26738D01*
X29322Y92132D01*
X31638Y93470D01*
X33530Y95362D01*
X34868Y97678D01*
X35560Y100262D01*
Y102938D01*
X34868Y105522D01*
X33530Y107838D01*
X31638Y109730D01*
X29322Y111068D01*
X26738Y111760D01*
D02*
G37*
G36*
X102938Y86360D02*
X102870D01*
Y77470D01*
X111760D01*
Y77538D01*
X111068Y80122D01*
X109730Y82438D01*
X107838Y84330D01*
X105522Y85668D01*
X102938Y86360D01*
D02*
G37*
G36*
X26738D02*
X26670D01*
Y77470D01*
X35560D01*
Y77538D01*
X34868Y80122D01*
X33530Y82438D01*
X31638Y84330D01*
X29322Y85668D01*
X26738Y86360D01*
D02*
G37*
G36*
X100330D02*
X100262D01*
X97678Y85668D01*
X95362Y84330D01*
X93470Y82438D01*
X92132Y80122D01*
X91440Y77538D01*
Y77470D01*
X100330D01*
Y86360D01*
D02*
G37*
G36*
X24130D02*
X24062D01*
X21478Y85668D01*
X19162Y84330D01*
X17270Y82438D01*
X15932Y80122D01*
X15240Y77538D01*
Y77470D01*
X24130D01*
Y86360D01*
D02*
G37*
G36*
X111760Y74930D02*
X102870D01*
Y66040D01*
X102938D01*
X105522Y66732D01*
X107838Y68070D01*
X109730Y69962D01*
X111068Y72278D01*
X111760Y74862D01*
Y74930D01*
D02*
G37*
G36*
X100330D02*
X91440D01*
Y74862D01*
X92132Y72278D01*
X93470Y69962D01*
X95362Y68070D01*
X97678Y66732D01*
X100262Y66040D01*
X100330D01*
Y74930D01*
D02*
G37*
G36*
X35560D02*
X26670D01*
Y66040D01*
X26738D01*
X29322Y66732D01*
X31638Y68070D01*
X33530Y69962D01*
X34868Y72278D01*
X35560Y74862D01*
Y74930D01*
D02*
G37*
G36*
X24130D02*
X15240D01*
Y74862D01*
X15932Y72278D01*
X17270Y69962D01*
X19162Y68070D01*
X21478Y66732D01*
X24062Y66040D01*
X24130D01*
Y74930D01*
D02*
G37*
G36*
X102938Y60960D02*
X102870D01*
Y52070D01*
X111760D01*
Y52138D01*
X111068Y54722D01*
X109730Y57038D01*
X107838Y58930D01*
X105522Y60268D01*
X102938Y60960D01*
D02*
G37*
G36*
X26738D02*
X26670D01*
Y52070D01*
X35560D01*
Y52138D01*
X34868Y54722D01*
X33530Y57038D01*
X31638Y58930D01*
X29322Y60268D01*
X26738Y60960D01*
D02*
G37*
G36*
X100330D02*
X100262D01*
X97678Y60268D01*
X95362Y58930D01*
X93470Y57038D01*
X92132Y54722D01*
X91440Y52138D01*
Y52070D01*
X100330D01*
Y60960D01*
D02*
G37*
G36*
X24130D02*
X24062D01*
X21478Y60268D01*
X19162Y58930D01*
X17270Y57038D01*
X15932Y54722D01*
X15240Y52138D01*
Y52070D01*
X24130D01*
Y60960D01*
D02*
G37*
G36*
X111760Y49530D02*
X102870D01*
Y40640D01*
X102938D01*
X105522Y41332D01*
X107838Y42670D01*
X109730Y44562D01*
X111068Y46878D01*
X111760Y49462D01*
Y49530D01*
D02*
G37*
G36*
X100330D02*
X91440D01*
Y49462D01*
X92132Y46878D01*
X93470Y44562D01*
X95362Y42670D01*
X97678Y41332D01*
X100262Y40640D01*
X100330D01*
Y49530D01*
D02*
G37*
G36*
X35560D02*
X26670D01*
Y40640D01*
X26738D01*
X29322Y41332D01*
X31638Y42670D01*
X33530Y44562D01*
X34868Y46878D01*
X35560Y49462D01*
Y49530D01*
D02*
G37*
G36*
X24130D02*
X15240D01*
Y49462D01*
X15932Y46878D01*
X17270Y44562D01*
X19162Y42670D01*
X21478Y41332D01*
X24062Y40640D01*
X24130D01*
Y49530D01*
D02*
G37*
G36*
X102938Y35560D02*
X102870D01*
Y26670D01*
X111760D01*
Y26738D01*
X111068Y29322D01*
X109730Y31638D01*
X107838Y33530D01*
X105522Y34868D01*
X102938Y35560D01*
D02*
G37*
G36*
X26738D02*
X26670D01*
Y26670D01*
X35560D01*
Y26738D01*
X34868Y29322D01*
X33530Y31638D01*
X31638Y33530D01*
X29322Y34868D01*
X26738Y35560D01*
D02*
G37*
G36*
X100330D02*
X100262D01*
X97678Y34868D01*
X95362Y33530D01*
X93470Y31638D01*
X92132Y29322D01*
X91440Y26738D01*
Y26670D01*
X100330D01*
Y35560D01*
D02*
G37*
G36*
X24130D02*
X24062D01*
X21478Y34868D01*
X19162Y33530D01*
X17270Y31638D01*
X15932Y29322D01*
X15240Y26738D01*
Y26670D01*
X24130D01*
Y35560D01*
D02*
G37*
G36*
X111760Y24130D02*
X102870D01*
Y15240D01*
X102938D01*
X105522Y15932D01*
X107838Y17270D01*
X109730Y19162D01*
X111068Y21478D01*
X111760Y24062D01*
Y24130D01*
D02*
G37*
G36*
X100330D02*
X91440D01*
Y24062D01*
X92132Y21478D01*
X93470Y19162D01*
X95362Y17270D01*
X97678Y15932D01*
X100262Y15240D01*
X100330D01*
Y24130D01*
D02*
G37*
G36*
X35560D02*
X26670D01*
Y15240D01*
X26738D01*
X29322Y15932D01*
X31638Y17270D01*
X33530Y19162D01*
X34868Y21478D01*
X35560Y24062D01*
Y24130D01*
D02*
G37*
G36*
X24130D02*
X15240D01*
Y24062D01*
X15932Y21478D01*
X17270Y19162D01*
X19162Y17270D01*
X21478Y15932D01*
X24062Y15240D01*
X24130D01*
Y24130D01*
D02*
G37*
%LPD*%
D18*
X101600Y50800D02*
D03*
Y25400D02*
D03*
Y76200D02*
D03*
Y101600D02*
D03*
Y127000D02*
D03*
Y152400D02*
D03*
X25400Y50800D02*
D03*
Y25400D02*
D03*
Y76200D02*
D03*
Y101600D02*
D03*
Y127000D02*
D03*
Y152400D02*
D03*
D19*
X72390Y148590D02*
D03*
Y91440D02*
D03*
X54610Y41910D02*
D03*
X43180Y114300D02*
D03*
M02*
