G04*
G04 #@! TF.GenerationSoftware,Altium Limited,Altium Designer,22.9.1 (49)*
G04*
G04 Layer_Physical_Order=1*
G04 Layer_Color=255*
%FSLAX44Y44*%
%MOMM*%
G71*
G04*
G04 #@! TF.SameCoordinates,05789482-0283-4914-9F0E-1FA18675A4EC*
G04*
G04*
G04 #@! TF.FilePolarity,Positive*
G04*
G01*
G75*
%ADD11C,0.2540*%
%ADD14R,1.1999X1.3998*%
%ADD18C,1.5240*%
%ADD19C,0.6350*%
D11*
X72390Y137618D02*
Y148590D01*
X71501Y136729D02*
X72390Y137618D01*
X54610Y77149D02*
Y86360D01*
X66675Y98425D02*
X82332D01*
X54501Y77039D02*
X54610Y77149D01*
Y86360D02*
X66675Y98425D01*
X83820Y99913D02*
Y109220D01*
X82332Y98425D02*
X83820Y99913D01*
Y109220D02*
X101600Y127000D01*
X54610Y41910D02*
Y54930D01*
X54501Y55039D02*
X54610Y54930D01*
X82550Y67086D02*
Y82550D01*
X101600Y101600D01*
X71501Y56037D02*
X82550Y67086D01*
X71501Y55038D02*
Y56037D01*
Y104993D02*
Y114728D01*
X25400Y101600D02*
X27305Y103505D01*
X70013D01*
X71501Y104993D01*
Y77039D02*
X72390Y77928D01*
Y91440D01*
X43180Y114300D02*
X54072D01*
X54501Y114729D01*
Y135730D02*
Y136729D01*
X25400Y127000D02*
X45771D01*
X54501Y135730D01*
D14*
Y136729D02*
D03*
Y114729D02*
D03*
X71501Y136729D02*
D03*
Y114728D02*
D03*
X54501Y77039D02*
D03*
Y55039D02*
D03*
X71501Y77039D02*
D03*
Y55038D02*
D03*
D18*
X101600Y50800D02*
D03*
Y25400D02*
D03*
Y76200D02*
D03*
Y101600D02*
D03*
Y127000D02*
D03*
Y152400D02*
D03*
X25400Y50800D02*
D03*
Y25400D02*
D03*
Y76200D02*
D03*
Y101600D02*
D03*
Y127000D02*
D03*
Y152400D02*
D03*
D19*
X72390Y148590D02*
D03*
Y91440D02*
D03*
X54610Y41910D02*
D03*
X43180Y114300D02*
D03*
M02*
