M48
;Layer_Color=9474304
;FILE_FORMAT=4:4
METRIC,LZ
;TYPE=PLATED
T1F00S00C0.3302
T3F00S00C1.0160
T4F00S00C1.1000
%
T01
X0007112Y0001778
X000635Y000635
X001524
X0058166Y0017018
X005588Y0030988
X0058166Y0033528
X0072644Y003429
X0074168Y0033528
Y0042164
X0072898Y004445
X0069596Y003937
X0084582Y0039116
X0052578Y0044958
X0043688Y0044196
X0053086Y0028702
X0053848Y001524
X0025654Y0018288
X0026416Y002159
X0019812Y001905
Y0014732
X0018034Y001016
X001524Y000762
X0015748Y0042164
X003302Y002794
X00048387Y00258826
X00017907
Y00208026
X00048387
X0024892Y0048006
X007239Y004699
T03
X00254Y0006604
X002794
X003048
X003302
X0062992Y0018796
Y0021336
Y0023876
Y0026416
Y0034544
Y0037084
Y0039624
Y0042164
X0074422Y0028956
X0076962
X0079502
X0082042
X0037338Y002413
Y002159
Y001905
Y001651
X0032512Y0013462
X0029972
X0027432
X0024892
X00254Y003556
X002286
X002032
X002794
X001143
X000889
X000635
X000381
T04
X0002032Y0001778
Y0004318
X008128Y0045466
X008382
X0046482Y0037338
Y0034798
Y0027686
Y0025146
X0018796Y0028702
X0016256
X0002032Y0014478
Y0011938
Y0009398
Y0006858
M30
