G04*
G04 #@! TF.GenerationSoftware,Altium Limited,Altium Designer,23.1.1 (15)*
G04*
G04 Layer_Color=8421504*
%FSLAX44Y44*%
%MOMM*%
G71*
G04*
G04 #@! TF.SameCoordinates,1FA4A5A5-67A0-4D6D-842F-5CAA9539815A*
G04*
G04*
G04 #@! TF.FilePolarity,Positive*
G04*
G01*
G75*
%ADD24R,0.6000X0.7000*%
%ADD25R,0.8000X0.8000*%
%ADD26R,0.8000X0.8000*%
%ADD27R,0.7000X0.6000*%
%ADD28R,1.1999X1.3998*%
G04:AMPARAMS|DCode=29|XSize=1.97mm|YSize=0.6mm|CornerRadius=0.15mm|HoleSize=0mm|Usage=FLASHONLY|Rotation=0.000|XOffset=0mm|YOffset=0mm|HoleType=Round|Shape=RoundedRectangle|*
%AMROUNDEDRECTD29*
21,1,1.9700,0.3000,0,0,0.0*
21,1,1.6700,0.6000,0,0,0.0*
1,1,0.3000,0.8350,-0.1500*
1,1,0.3000,-0.8350,-0.1500*
1,1,0.3000,-0.8350,0.1500*
1,1,0.3000,0.8350,0.1500*
%
%ADD29ROUNDEDRECTD29*%
%ADD30R,1.1176X1.8034*%
%ADD31R,1.5500X0.6000*%
G04:AMPARAMS|DCode=32|XSize=1.21mm|YSize=0.59mm|CornerRadius=0.1475mm|HoleSize=0mm|Usage=FLASHONLY|Rotation=180.000|XOffset=0mm|YOffset=0mm|HoleType=Round|Shape=RoundedRectangle|*
%AMROUNDEDRECTD32*
21,1,1.2100,0.2950,0,0,180.0*
21,1,0.9150,0.5900,0,0,180.0*
1,1,0.2950,-0.4575,0.1475*
1,1,0.2950,0.4575,0.1475*
1,1,0.2950,0.4575,-0.1475*
1,1,0.2950,-0.4575,-0.1475*
%
%ADD32ROUNDEDRECTD32*%
%ADD33R,1.4500X1.0000*%
%ADD34R,0.6000X2.6500*%
%ADD35R,3.0480X2.5400*%
%ADD36R,1.8034X1.1176*%
%ADD37R,3.4000X0.6000*%
D24*
X167560Y101600D02*
D03*
X157560D02*
D03*
X734060Y469900D02*
D03*
X744060D02*
D03*
X548560Y309880D02*
D03*
X538560D02*
D03*
X317500Y279400D02*
D03*
X307500D02*
D03*
X718820Y444500D02*
D03*
X708820D02*
D03*
X437040Y454660D02*
D03*
X447040D02*
D03*
X515460Y287020D02*
D03*
X505460D02*
D03*
X474900Y218440D02*
D03*
X464900D02*
D03*
X525700Y152400D02*
D03*
X515700D02*
D03*
X474900Y421640D02*
D03*
X464900D02*
D03*
X236300Y182880D02*
D03*
X246300D02*
D03*
X515540Y449580D02*
D03*
X505540D02*
D03*
X198040Y205740D02*
D03*
X188040D02*
D03*
D25*
X505580Y309880D02*
D03*
X520580D02*
D03*
X779660Y469900D02*
D03*
X764660D02*
D03*
X233920Y424180D02*
D03*
X248920D02*
D03*
D26*
X464820Y439660D02*
D03*
Y454660D02*
D03*
X289560Y264280D02*
D03*
Y279280D02*
D03*
D27*
X71120Y30560D02*
D03*
Y40560D02*
D03*
X708660Y375840D02*
D03*
Y365840D02*
D03*
X726440Y355680D02*
D03*
Y365680D02*
D03*
X779780Y444580D02*
D03*
Y454580D02*
D03*
X845820Y401320D02*
D03*
Y411320D02*
D03*
X172720Y205820D02*
D03*
Y215820D02*
D03*
Y233840D02*
D03*
Y243840D02*
D03*
D28*
X709821Y414859D02*
D03*
Y392859D02*
D03*
X726821Y414859D02*
D03*
Y392858D02*
D03*
D29*
X812800Y411480D02*
D03*
Y398780D02*
D03*
Y386080D02*
D03*
Y373380D02*
D03*
Y360680D02*
D03*
Y347980D02*
D03*
Y335280D02*
D03*
X763300D02*
D03*
Y347980D02*
D03*
Y360680D02*
D03*
Y373380D02*
D03*
Y386080D02*
D03*
Y398780D02*
D03*
Y411480D02*
D03*
D30*
X180086Y147320D02*
D03*
X150114D02*
D03*
X465074Y152400D02*
D03*
X495046D02*
D03*
D31*
X81280Y101600D02*
D03*
Y88900D02*
D03*
Y76200D02*
D03*
Y63500D02*
D03*
X135280Y101600D02*
D03*
Y88900D02*
D03*
Y76200D02*
D03*
Y63500D02*
D03*
D32*
X126850Y149200D02*
D03*
X101750Y139700D02*
D03*
X126850Y130200D02*
D03*
D33*
X248920Y447700D02*
D03*
Y466700D02*
D03*
X157480Y455880D02*
D03*
Y436880D02*
D03*
D34*
X505460Y248920D02*
D03*
X518160Y249340D02*
D03*
X530860D02*
D03*
X543560D02*
D03*
X556260D02*
D03*
X568960D02*
D03*
X581660D02*
D03*
Y192620D02*
D03*
X568960D02*
D03*
X556260D02*
D03*
X543560D02*
D03*
X530860D02*
D03*
X518160D02*
D03*
X505460D02*
D03*
Y414020D02*
D03*
X518160Y414440D02*
D03*
X530860D02*
D03*
X543560D02*
D03*
X556260D02*
D03*
X568960D02*
D03*
X581660D02*
D03*
Y357720D02*
D03*
X568960D02*
D03*
X556260D02*
D03*
X543560D02*
D03*
X530860D02*
D03*
X518160D02*
D03*
X505460D02*
D03*
D35*
X22987Y233426D02*
D03*
D36*
X198120Y424434D02*
D03*
Y454406D02*
D03*
D37*
X235560Y205740D02*
D03*
Y218440D02*
D03*
Y231140D02*
D03*
Y243840D02*
D03*
X289560D02*
D03*
Y231140D02*
D03*
Y218440D02*
D03*
Y205740D02*
D03*
M02*
