G04*
G04 #@! TF.GenerationSoftware,Altium Limited,Altium Designer,23.1.1 (15)*
G04*
G04 Layer_Color=32896*
%FSLAX44Y44*%
%MOMM*%
G71*
G04*
G04 #@! TF.SameCoordinates,D4A6E2A1-82A2-41B1-AD13-0731C62F89D9*
G04*
G04*
G04 #@! TF.FilePolarity,Positive*
G04*
G01*
G75*
%ADD12C,0.1270*%
D12*
X102870Y154938D02*
X101600Y156208D01*
X99061D01*
X97792Y154938D01*
Y149860D01*
X99061Y148590D01*
X101600D01*
X102870Y149860D01*
Y154938D01*
X95253Y148590D02*
X92713D01*
X93983D01*
Y156208D01*
X95253Y154938D01*
X88904Y152399D02*
X83826D01*
X76209Y148590D02*
X81287D01*
X76209Y153668D01*
Y154938D01*
X77478Y156208D01*
X80017D01*
X81287Y154938D01*
X73669D02*
X72400Y156208D01*
X69861D01*
X68591Y154938D01*
Y153668D01*
X69861Y152399D01*
X68591Y151129D01*
Y149860D01*
X69861Y148590D01*
X72400D01*
X73669Y149860D01*
Y151129D01*
X72400Y152399D01*
X73669Y153668D01*
Y154938D01*
X72400Y152399D02*
X69861D01*
X66052D02*
X60974D01*
X53356Y148590D02*
X58434D01*
X53356Y153668D01*
Y154938D01*
X54626Y156208D01*
X57165D01*
X58434Y154938D01*
X50817D02*
X49547Y156208D01*
X47008D01*
X45739Y154938D01*
Y153668D01*
X47008Y152399D01*
X48278D01*
X47008D01*
X45739Y151129D01*
Y149860D01*
X47008Y148590D01*
X49547D01*
X50817Y149860D01*
X92710Y128267D02*
X87632D01*
X90171D01*
Y120650D01*
X83823Y125728D02*
X81284D01*
X80014Y124459D01*
Y120650D01*
X83823D01*
X85092Y121920D01*
X83823Y123189D01*
X80014D01*
X77475Y128267D02*
Y120650D01*
Y124459D01*
X76205Y125728D01*
X73666D01*
X72397Y124459D01*
Y120650D01*
X66049D02*
X68588D01*
X69857Y121920D01*
Y124459D01*
X68588Y125728D01*
X66049D01*
X64779Y124459D01*
Y123189D01*
X69857D01*
X62240Y125728D02*
Y120650D01*
Y123189D01*
X60970Y124459D01*
X59701Y125728D01*
X58431D01*
X110490Y143507D02*
Y135889D01*
X106681D01*
X105412Y137159D01*
Y142237D01*
X106681Y143507D01*
X110490D01*
X99064Y135889D02*
X101603D01*
X102872Y137159D01*
Y139698D01*
X101603Y140968D01*
X99064D01*
X97794Y139698D01*
Y138428D01*
X102872D01*
X95255Y135889D02*
X91446D01*
X90177Y137159D01*
X91446Y138428D01*
X93985D01*
X95255Y139698D01*
X93985Y140968D01*
X90177D01*
X87637Y135889D02*
X85098D01*
X86368D01*
Y140968D01*
X87637D01*
X78750Y133350D02*
X77481D01*
X76211Y134620D01*
Y140968D01*
X80020D01*
X81289Y139698D01*
Y137159D01*
X80020Y135889D01*
X76211D01*
X73672D02*
Y140968D01*
X69863D01*
X68594Y139698D01*
Y135889D01*
X62246D02*
X64785D01*
X66054Y137159D01*
Y139698D01*
X64785Y140968D01*
X62246D01*
X60976Y139698D01*
Y138428D01*
X66054D01*
X53358Y143507D02*
Y135889D01*
X57167D01*
X58437Y137159D01*
Y139698D01*
X57167Y140968D01*
X53358D01*
X43202Y143507D02*
Y135889D01*
X39393D01*
X38123Y137159D01*
Y138428D01*
X39393Y139698D01*
X43202D01*
X39393D01*
X38123Y140968D01*
Y142237D01*
X39393Y143507D01*
X43202D01*
X35584Y140968D02*
Y137159D01*
X34315Y135889D01*
X30506D01*
Y134620D01*
X31776Y133350D01*
X33045D01*
X30506Y135889D02*
Y140968D01*
M02*
