G04*
G04 #@! TF.GenerationSoftware,Altium Limited,Altium Designer,23.1.1 (15)*
G04*
G04 Layer_Color=128*
%FSLAX44Y44*%
%MOMM*%
G71*
G04*
G04 #@! TF.SameCoordinates,D4A6E2A1-82A2-41B1-AD13-0731C62F89D9*
G04*
G04*
G04 #@! TF.FilePolarity,Positive*
G04*
G01*
G75*
%ADD22C,0.0508*%
D22*
X106260Y152400D02*
X117260D01*
X111760Y146900D02*
Y157900D01*
X106260Y127000D02*
X117260D01*
X111760Y121500D02*
Y132500D01*
X106260Y101600D02*
X117260D01*
X111760Y96100D02*
Y107100D01*
X106260Y76200D02*
X117260D01*
X111760Y70700D02*
Y81700D01*
X106260Y25400D02*
X117260D01*
X111760Y19900D02*
Y30900D01*
X106260Y50800D02*
X117260D01*
X111760Y45300D02*
Y56300D01*
X30060Y152400D02*
X41060D01*
X35560Y146900D02*
Y157900D01*
X30060Y127000D02*
X41060D01*
X35560Y121500D02*
Y132500D01*
X30060Y101600D02*
X41060D01*
X35560Y96100D02*
Y107100D01*
X30060Y76200D02*
X41060D01*
X35560Y70700D02*
Y81700D01*
X30060Y25400D02*
X41060D01*
X35560Y19900D02*
Y30900D01*
X30060Y50800D02*
X41060D01*
X35560Y45300D02*
Y56300D01*
X84709Y76200D02*
X88011D01*
X86360Y74549D02*
Y77851D01*
M02*
