G04*
G04 #@! TF.GenerationSoftware,Altium Limited,Altium Designer,23.1.1 (15)*
G04*
G04 Layer_Color=2752767*
%FSLAX44Y44*%
%MOMM*%
G71*
G04*
G04 #@! TF.SameCoordinates,D4A6E2A1-82A2-41B1-AD13-0731C62F89D9*
G04*
G04*
G04 #@! TF.FilePolarity,Positive*
G04*
G01*
G75*
%ADD22C,0.0508*%
%ADD23C,0.0677*%
D22*
X109728Y150368D02*
Y154432D01*
X113792D01*
Y150368D01*
X109728D01*
Y124968D02*
Y129032D01*
X113792D01*
Y124968D01*
X109728D01*
Y99568D02*
Y103632D01*
X113792D01*
Y99568D01*
X109728D01*
Y74168D02*
Y78232D01*
X113792D01*
Y74168D01*
X109728D01*
Y23368D02*
Y27432D01*
X113792D01*
Y23368D01*
X109728D01*
Y48768D02*
Y52832D01*
X113792D01*
Y48768D01*
X109728D01*
X33528Y150368D02*
Y154432D01*
X37592D01*
Y150368D01*
X33528D01*
Y124968D02*
Y129032D01*
X37592D01*
Y124968D01*
X33528D01*
Y99568D02*
Y103632D01*
X37592D01*
Y99568D01*
X33528D01*
Y74168D02*
Y78232D01*
X37592D01*
Y74168D01*
X33528D01*
Y23368D02*
Y27432D01*
X37592D01*
Y23368D01*
X33528D01*
Y48768D02*
Y52832D01*
X37592D01*
Y48768D01*
X33528D01*
D23*
X88392Y76200D02*
G03*
X88392Y76200I-2032J0D01*
G01*
M02*
