G04*
G04 #@! TF.GenerationSoftware,Altium Limited,Altium Designer,23.1.1 (15)*
G04*
G04 Layer_Physical_Order=1*
G04 Layer_Color=255*
%FSLAX44Y44*%
%MOMM*%
G71*
G04*
G04 #@! TF.SameCoordinates,D4A6E2A1-82A2-41B1-AD13-0731C62F89D9*
G04*
G04*
G04 #@! TF.FilePolarity,Positive*
G04*
G01*
G75*
%ADD10C,0.1524*%
%ADD13R,1.8034X1.1176*%
%ADD14R,1.8542X1.3716*%
%ADD15R,1.3716X1.8542*%
%ADD19C,1.5240*%
%ADD20C,0.6350*%
D10*
X86864Y28444D02*
X109220Y50800D01*
X86864Y21967D02*
Y28444D01*
X84836Y19939D02*
X86864Y21967D01*
X109220Y50800D02*
X111760D01*
X86360Y51435D02*
Y76200D01*
X63500Y19939D02*
X84836D01*
X63119Y50800D02*
X63500Y51181D01*
X35560Y50800D02*
X63119D01*
X89281Y101600D02*
X111760D01*
X35560D02*
X58039D01*
X35560Y152400D02*
X111760D01*
D13*
X86360Y51435D02*
D03*
Y21463D02*
D03*
D14*
X63500Y51181D02*
D03*
Y19939D02*
D03*
D15*
X58039Y101600D02*
D03*
X89281D02*
D03*
D19*
X111760Y152400D02*
D03*
Y127000D02*
D03*
Y101600D02*
D03*
Y76200D02*
D03*
Y25400D02*
D03*
Y50800D02*
D03*
X35560Y152400D02*
D03*
Y127000D02*
D03*
Y101600D02*
D03*
Y76200D02*
D03*
Y25400D02*
D03*
Y50800D02*
D03*
D20*
X86360Y76200D02*
D03*
M02*
