G04*
G04 #@! TF.GenerationSoftware,Altium Limited,Altium Designer,22.9.1 (49)*
G04*
G04 Layer_Color=16711935*
%FSLAX44Y44*%
%MOMM*%
G71*
G04*
G04 #@! TF.SameCoordinates,E5F82799-094A-4641-A06E-9C292172CD6F*
G04*
G04*
G04 #@! TF.FilePolarity,Negative*
G04*
G01*
G75*
%ADD26C,1.7272*%
%ADD27C,0.8382*%
%ADD28C,0.7620*%
D26*
X16510Y271780D02*
D03*
Y297180D02*
D03*
X194310Y271780D02*
D03*
Y297180D02*
D03*
Y246380D02*
D03*
Y220980D02*
D03*
Y195580D02*
D03*
Y170180D02*
D03*
Y144780D02*
D03*
Y119380D02*
D03*
Y93980D02*
D03*
Y68580D02*
D03*
Y43180D02*
D03*
Y17780D02*
D03*
X16510Y246380D02*
D03*
Y220980D02*
D03*
Y195580D02*
D03*
Y170180D02*
D03*
Y144780D02*
D03*
Y119380D02*
D03*
Y93980D02*
D03*
Y68580D02*
D03*
Y43180D02*
D03*
Y17780D02*
D03*
D27*
X146366Y114570D02*
D03*
X153670Y142240D02*
D03*
X57150Y123190D02*
D03*
X149860Y20320D02*
D03*
X111760Y11430D02*
D03*
X125730Y284480D02*
D03*
X83820Y295910D02*
D03*
X66421Y29210D02*
D03*
X53340Y33020D02*
D03*
X151130Y34290D02*
D03*
X138430Y200660D02*
D03*
X163830Y297180D02*
D03*
D28*
X137160Y118110D02*
D03*
X158750D02*
D03*
X177800Y119380D02*
D03*
X102870D02*
D03*
X121846Y119454D02*
D03*
X83820Y201930D02*
D03*
X57579Y168069D02*
D03*
X111680Y178990D02*
D03*
X35560Y191770D02*
D03*
M02*
