G04*
G04 #@! TF.GenerationSoftware,Altium Limited,Altium Designer,22.9.1 (49)*
G04*
G04 Layer_Color=8421504*
%FSLAX44Y44*%
%MOMM*%
G71*
G04*
G04 #@! TF.SameCoordinates,E5F82799-094A-4641-A06E-9C292172CD6F*
G04*
G04*
G04 #@! TF.FilePolarity,Positive*
G04*
G01*
G75*
%ADD16R,0.7000X0.6000*%
%ADD17R,0.6000X0.7000*%
G04:AMPARAMS|DCode=18|XSize=1.97mm|YSize=0.6mm|CornerRadius=0.15mm|HoleSize=0mm|Usage=FLASHONLY|Rotation=90.000|XOffset=0mm|YOffset=0mm|HoleType=Round|Shape=RoundedRectangle|*
%AMROUNDEDRECTD18*
21,1,1.9700,0.3000,0,0,90.0*
21,1,1.6700,0.6000,0,0,90.0*
1,1,0.3000,0.1500,0.8350*
1,1,0.3000,0.1500,-0.8350*
1,1,0.3000,-0.1500,-0.8350*
1,1,0.3000,-0.1500,0.8350*
%
%ADD18ROUNDEDRECTD18*%
%ADD19R,1.1999X1.3998*%
%ADD20R,0.8000X0.8000*%
%ADD21R,1.3998X1.1999*%
D16*
X57150Y111680D02*
D03*
Y101680D02*
D03*
X138430Y20320D02*
D03*
Y30320D02*
D03*
X120650Y20480D02*
D03*
Y30480D02*
D03*
X53340Y12780D02*
D03*
Y22780D02*
D03*
D17*
X72310Y295910D02*
D03*
X62310D02*
D03*
X113110Y130810D02*
D03*
X123110D02*
D03*
X111680Y168910D02*
D03*
X101680D02*
D03*
X43260Y191770D02*
D03*
X53260D02*
D03*
X97790Y297180D02*
D03*
X107790D02*
D03*
X109220Y190500D02*
D03*
X99220D02*
D03*
D18*
X74930Y51450D02*
D03*
X87630D02*
D03*
X100330D02*
D03*
X113030D02*
D03*
X125730D02*
D03*
X138430D02*
D03*
X151130D02*
D03*
Y100950D02*
D03*
X138430D02*
D03*
X125730D02*
D03*
X113030D02*
D03*
X100330D02*
D03*
X87630D02*
D03*
X74930D02*
D03*
X62230Y217820D02*
D03*
X74930D02*
D03*
X87630D02*
D03*
X100330D02*
D03*
X113030D02*
D03*
X125730D02*
D03*
X138430D02*
D03*
Y267320D02*
D03*
X125730D02*
D03*
X113030D02*
D03*
X100330D02*
D03*
X87630D02*
D03*
X74930D02*
D03*
X62230D02*
D03*
D19*
X84201Y168068D02*
D03*
Y190069D02*
D03*
X67201Y168069D02*
D03*
Y190069D02*
D03*
D20*
X149740Y297180D02*
D03*
X134740D02*
D03*
X138430Y130810D02*
D03*
X153430D02*
D03*
D21*
X77470Y12210D02*
D03*
X99470D02*
D03*
X77470Y29210D02*
D03*
X99472D02*
D03*
M02*
