G04*
G04 #@! TF.GenerationSoftware,Altium Limited,Altium Designer,22.9.1 (49)*
G04*
G04 Layer_Physical_Order=2*
G04 Layer_Color=16711680*
%FSLAX44Y44*%
%MOMM*%
G71*
G04*
G04 #@! TF.SameCoordinates,E5F82799-094A-4641-A06E-9C292172CD6F*
G04*
G04*
G04 #@! TF.FilePolarity,Positive*
G04*
G01*
G75*
%ADD13C,0.1524*%
%ADD29C,1.5240*%
%ADD30C,0.6350*%
%ADD31C,0.5588*%
G36*
X207971Y2849D02*
X2849D01*
Y314651D01*
X207971D01*
Y2849D01*
D02*
G37*
%LPC*%
G36*
X195514Y306324D02*
X193106D01*
X190781Y305701D01*
X188696Y304497D01*
X186993Y302794D01*
X185789Y300709D01*
X185166Y298384D01*
Y295976D01*
X185789Y293650D01*
X186993Y291565D01*
X188696Y289863D01*
X190781Y288659D01*
X193106Y288036D01*
X195514D01*
X197840Y288659D01*
X199925Y289863D01*
X201627Y291565D01*
X202831Y293650D01*
X203454Y295976D01*
Y298384D01*
X202831Y300709D01*
X201627Y302794D01*
X199925Y304497D01*
X197840Y305701D01*
X195514Y306324D01*
D02*
G37*
G36*
X17714D02*
X15306D01*
X12981Y305701D01*
X10896Y304497D01*
X9193Y302794D01*
X7989Y300709D01*
X7366Y298384D01*
Y295976D01*
X7989Y293650D01*
X9193Y291565D01*
X10896Y289863D01*
X12981Y288659D01*
X15306Y288036D01*
X17714D01*
X20040Y288659D01*
X22125Y289863D01*
X23827Y291565D01*
X25031Y293650D01*
X25654Y295976D01*
Y298384D01*
X25031Y300709D01*
X23827Y302794D01*
X22125Y304497D01*
X20040Y305701D01*
X17714Y306324D01*
D02*
G37*
G36*
X195648Y281940D02*
X195580D01*
Y273050D01*
X204470D01*
Y273118D01*
X203778Y275702D01*
X202440Y278018D01*
X200548Y279910D01*
X198232Y281248D01*
X195648Y281940D01*
D02*
G37*
G36*
X17848D02*
X17780D01*
Y273050D01*
X26670D01*
Y273118D01*
X25978Y275702D01*
X24640Y278018D01*
X22748Y279910D01*
X20432Y281248D01*
X17848Y281940D01*
D02*
G37*
G36*
X193040D02*
X192972D01*
X190388Y281248D01*
X188072Y279910D01*
X186180Y278018D01*
X184842Y275702D01*
X184150Y273118D01*
Y273050D01*
X193040D01*
Y281940D01*
D02*
G37*
G36*
X15240D02*
X15172D01*
X12588Y281248D01*
X10272Y279910D01*
X8380Y278018D01*
X7042Y275702D01*
X6350Y273118D01*
Y273050D01*
X15240D01*
Y281940D01*
D02*
G37*
G36*
X204470Y270510D02*
X195580D01*
Y261620D01*
X195648D01*
X198232Y262312D01*
X200548Y263650D01*
X202440Y265542D01*
X203778Y267858D01*
X204470Y270442D01*
Y270510D01*
D02*
G37*
G36*
X193040D02*
X184150D01*
Y270442D01*
X184842Y267858D01*
X186180Y265542D01*
X188072Y263650D01*
X190388Y262312D01*
X192972Y261620D01*
X193040D01*
Y270510D01*
D02*
G37*
G36*
X26670D02*
X17780D01*
Y261620D01*
X17848D01*
X20432Y262312D01*
X22748Y263650D01*
X24640Y265542D01*
X25978Y267858D01*
X26670Y270442D01*
Y270510D01*
D02*
G37*
G36*
X15240D02*
X6350D01*
Y270442D01*
X7042Y267858D01*
X8380Y265542D01*
X10272Y263650D01*
X12588Y262312D01*
X15172Y261620D01*
X15240D01*
Y270510D01*
D02*
G37*
G36*
X195514Y255524D02*
X193106D01*
X190781Y254901D01*
X188696Y253697D01*
X186993Y251994D01*
X185789Y249909D01*
X185166Y247584D01*
Y245176D01*
X185789Y242850D01*
X186993Y240765D01*
X188696Y239063D01*
X190781Y237859D01*
X193106Y237236D01*
X195514D01*
X197840Y237859D01*
X199925Y239063D01*
X201627Y240765D01*
X202831Y242850D01*
X203454Y245176D01*
Y247584D01*
X202831Y249909D01*
X201627Y251994D01*
X199925Y253697D01*
X197840Y254901D01*
X195514Y255524D01*
D02*
G37*
G36*
X17714D02*
X15306D01*
X12981Y254901D01*
X10896Y253697D01*
X9193Y251994D01*
X7989Y249909D01*
X7366Y247584D01*
Y245176D01*
X7989Y242850D01*
X9193Y240765D01*
X10896Y239063D01*
X12981Y237859D01*
X15306Y237236D01*
X17714D01*
X20040Y237859D01*
X22125Y239063D01*
X23827Y240765D01*
X25031Y242850D01*
X25654Y245176D01*
Y247584D01*
X25031Y249909D01*
X23827Y251994D01*
X22125Y253697D01*
X20040Y254901D01*
X17714Y255524D01*
D02*
G37*
G36*
X195648Y231140D02*
X195580D01*
Y222250D01*
X204470D01*
Y222318D01*
X203778Y224902D01*
X202440Y227218D01*
X200548Y229110D01*
X198232Y230448D01*
X195648Y231140D01*
D02*
G37*
G36*
X17848D02*
X17780D01*
Y222250D01*
X26670D01*
Y222318D01*
X25978Y224902D01*
X24640Y227218D01*
X22748Y229110D01*
X20432Y230448D01*
X17848Y231140D01*
D02*
G37*
G36*
X15240D02*
X15172D01*
X12588Y230448D01*
X10272Y229110D01*
X8380Y227218D01*
X7042Y224902D01*
X6350Y222318D01*
Y222250D01*
X15240D01*
Y231140D01*
D02*
G37*
G36*
X193040D02*
X192972D01*
X190388Y230448D01*
X188072Y229110D01*
X186180Y227218D01*
X184842Y224902D01*
X184150Y222318D01*
Y222250D01*
X193040D01*
Y231140D01*
D02*
G37*
G36*
X204470Y219710D02*
X195580D01*
Y210820D01*
X195648D01*
X198232Y211512D01*
X200548Y212850D01*
X202440Y214742D01*
X203778Y217058D01*
X204470Y219642D01*
Y219710D01*
D02*
G37*
G36*
X193040D02*
X184150D01*
Y219642D01*
X184842Y217058D01*
X186180Y214742D01*
X188072Y212850D01*
X190388Y211512D01*
X192972Y210820D01*
X193040D01*
Y219710D01*
D02*
G37*
G36*
X26670D02*
X17780D01*
Y210820D01*
X17848D01*
X20432Y211512D01*
X22748Y212850D01*
X24640Y214742D01*
X25978Y217058D01*
X26670Y219642D01*
Y219710D01*
D02*
G37*
G36*
X15240D02*
X6350D01*
Y219642D01*
X7042Y217058D01*
X8380Y214742D01*
X10272Y212850D01*
X12588Y211512D01*
X15172Y210820D01*
X15240D01*
Y219710D01*
D02*
G37*
G36*
X195514Y204724D02*
X193106D01*
X190781Y204101D01*
X188696Y202897D01*
X186993Y201194D01*
X185789Y199109D01*
X185166Y196784D01*
Y194376D01*
X185789Y192050D01*
X186993Y189965D01*
X188696Y188263D01*
X190781Y187059D01*
X193106Y186436D01*
X195514D01*
X197840Y187059D01*
X199925Y188263D01*
X201627Y189965D01*
X202831Y192050D01*
X203454Y194376D01*
Y196784D01*
X202831Y199109D01*
X201627Y201194D01*
X199925Y202897D01*
X197840Y204101D01*
X195514Y204724D01*
D02*
G37*
G36*
X17714D02*
X15306D01*
X12981Y204101D01*
X10896Y202897D01*
X9193Y201194D01*
X7989Y199109D01*
X7366Y196784D01*
Y194376D01*
X7989Y192050D01*
X9193Y189965D01*
X10896Y188263D01*
X12981Y187059D01*
X15306Y186436D01*
X17714D01*
X20040Y187059D01*
X22125Y188263D01*
X23827Y189965D01*
X25031Y192050D01*
X25654Y194376D01*
Y196784D01*
X25031Y199109D01*
X23827Y201194D01*
X22125Y202897D01*
X20040Y204101D01*
X17714Y204724D01*
D02*
G37*
G36*
X195514Y179324D02*
X193106D01*
X190781Y178701D01*
X188696Y177497D01*
X186993Y175795D01*
X185789Y173710D01*
X185166Y171384D01*
Y168976D01*
X185789Y166651D01*
X186993Y164566D01*
X188696Y162863D01*
X190781Y161659D01*
X193106Y161036D01*
X195514D01*
X197840Y161659D01*
X199925Y162863D01*
X201627Y164566D01*
X202831Y166651D01*
X203454Y168976D01*
Y171384D01*
X202831Y173710D01*
X201627Y175795D01*
X199925Y177497D01*
X197840Y178701D01*
X195514Y179324D01*
D02*
G37*
G36*
X17714D02*
X15306D01*
X12981Y178701D01*
X10896Y177497D01*
X9193Y175795D01*
X7989Y173710D01*
X7366Y171384D01*
Y168976D01*
X7989Y166651D01*
X9193Y164566D01*
X10896Y162863D01*
X12981Y161659D01*
X15306Y161036D01*
X17714D01*
X20040Y161659D01*
X22125Y162863D01*
X23827Y164566D01*
X25031Y166651D01*
X25654Y168976D01*
Y171384D01*
X25031Y173710D01*
X23827Y175795D01*
X22125Y177497D01*
X20040Y178701D01*
X17714Y179324D01*
D02*
G37*
G36*
X195514Y153924D02*
X193106D01*
X190781Y153301D01*
X188696Y152097D01*
X186993Y150394D01*
X185789Y148309D01*
X185166Y145984D01*
Y143576D01*
X185789Y141250D01*
X186993Y139165D01*
X188696Y137463D01*
X190781Y136259D01*
X193106Y135636D01*
X195514D01*
X197840Y136259D01*
X199925Y137463D01*
X201627Y139165D01*
X202831Y141250D01*
X203454Y143576D01*
Y145984D01*
X202831Y148309D01*
X201627Y150394D01*
X199925Y152097D01*
X197840Y153301D01*
X195514Y153924D01*
D02*
G37*
G36*
X17714D02*
X15306D01*
X12981Y153301D01*
X10896Y152097D01*
X9193Y150394D01*
X7989Y148309D01*
X7366Y145984D01*
Y143576D01*
X7989Y141250D01*
X9193Y139165D01*
X10896Y137463D01*
X12981Y136259D01*
X15306Y135636D01*
X17714D01*
X20040Y136259D01*
X22125Y137463D01*
X23827Y139165D01*
X25031Y141250D01*
X25654Y143576D01*
Y145984D01*
X25031Y148309D01*
X23827Y150394D01*
X22125Y152097D01*
X20040Y153301D01*
X17714Y153924D01*
D02*
G37*
G36*
X122705Y123772D02*
X120987D01*
X119400Y123115D01*
X118185Y121900D01*
X118122Y121748D01*
X106563D01*
X106531Y121826D01*
X105316Y123041D01*
X103729Y123698D01*
X102011D01*
X100424Y123041D01*
X99209Y121826D01*
X98552Y120239D01*
Y118521D01*
X99209Y116934D01*
X100424Y115719D01*
X102011Y115062D01*
X103729D01*
X105316Y115719D01*
X106531Y116934D01*
X106594Y117086D01*
X118153D01*
X118185Y117008D01*
X119400Y115794D01*
X120987Y115136D01*
X122705D01*
X124292Y115794D01*
X125506Y117008D01*
X125554Y117123D01*
X130352D01*
X130432Y117044D01*
X131188Y116539D01*
X131336Y116509D01*
X132080Y116361D01*
X133211D01*
X133499Y115664D01*
X134714Y114449D01*
X136301Y113792D01*
X138019D01*
X139606Y114449D01*
X140821Y115664D01*
X141478Y117251D01*
Y118969D01*
X140821Y120556D01*
X139606Y121771D01*
X138019Y122428D01*
X136301D01*
X134714Y121771D01*
X133966Y121023D01*
X133045D01*
X132966Y121102D01*
X132210Y121608D01*
X131318Y121785D01*
X125554D01*
X125506Y121900D01*
X124292Y123115D01*
X122705Y123772D01*
D02*
G37*
G36*
X178659Y123698D02*
X176941D01*
X175354Y123041D01*
X174139Y121826D01*
X173829Y121076D01*
X161891D01*
X161196Y121771D01*
X159609Y122428D01*
X157891D01*
X156304Y121771D01*
X155089Y120556D01*
X154432Y118969D01*
Y117251D01*
X155089Y115664D01*
X156304Y114449D01*
X157891Y113792D01*
X159609D01*
X161196Y114449D01*
X162411Y115664D01*
X162721Y116414D01*
X174659D01*
X175354Y115719D01*
X176941Y115062D01*
X178659D01*
X180246Y115719D01*
X181461Y116934D01*
X182118Y118521D01*
Y120239D01*
X181461Y121826D01*
X180246Y123041D01*
X178659Y123698D01*
D02*
G37*
G36*
X195514Y128524D02*
X193106D01*
X190781Y127901D01*
X188696Y126697D01*
X186993Y124994D01*
X185789Y122909D01*
X185166Y120584D01*
Y118176D01*
X185789Y115850D01*
X186993Y113765D01*
X188696Y112063D01*
X190781Y110859D01*
X193106Y110236D01*
X195514D01*
X197840Y110859D01*
X199925Y112063D01*
X201627Y113765D01*
X202831Y115850D01*
X203454Y118176D01*
Y120584D01*
X202831Y122909D01*
X201627Y124994D01*
X199925Y126697D01*
X197840Y127901D01*
X195514Y128524D01*
D02*
G37*
G36*
X17714D02*
X15306D01*
X12981Y127901D01*
X10896Y126697D01*
X9193Y124994D01*
X7989Y122909D01*
X7366Y120584D01*
Y118176D01*
X7989Y115850D01*
X9193Y113765D01*
X10896Y112063D01*
X12981Y110859D01*
X15306Y110236D01*
X17714D01*
X20040Y110859D01*
X22125Y112063D01*
X23827Y113765D01*
X25031Y115850D01*
X25654Y118176D01*
Y120584D01*
X25031Y122909D01*
X23827Y124994D01*
X22125Y126697D01*
X20040Y127901D01*
X17714Y128524D01*
D02*
G37*
G36*
X195514Y103124D02*
X193106D01*
X190781Y102501D01*
X188696Y101297D01*
X186993Y99594D01*
X185789Y97509D01*
X185166Y95184D01*
Y92776D01*
X185789Y90450D01*
X186993Y88365D01*
X188696Y86663D01*
X190781Y85459D01*
X193106Y84836D01*
X195514D01*
X197840Y85459D01*
X199925Y86663D01*
X201627Y88365D01*
X202831Y90450D01*
X203454Y92776D01*
Y95184D01*
X202831Y97509D01*
X201627Y99594D01*
X199925Y101297D01*
X197840Y102501D01*
X195514Y103124D01*
D02*
G37*
G36*
X17714D02*
X15306D01*
X12981Y102501D01*
X10896Y101297D01*
X9193Y99594D01*
X7989Y97509D01*
X7366Y95184D01*
Y92776D01*
X7989Y90450D01*
X9193Y88365D01*
X10896Y86663D01*
X12981Y85459D01*
X15306Y84836D01*
X17714D01*
X20040Y85459D01*
X22125Y86663D01*
X23827Y88365D01*
X25031Y90450D01*
X25654Y92776D01*
Y95184D01*
X25031Y97509D01*
X23827Y99594D01*
X22125Y101297D01*
X20040Y102501D01*
X17714Y103124D01*
D02*
G37*
G36*
X195648Y78740D02*
X195580D01*
Y69850D01*
X204470D01*
Y69918D01*
X203778Y72502D01*
X202440Y74818D01*
X200548Y76710D01*
X198232Y78048D01*
X195648Y78740D01*
D02*
G37*
G36*
X17848D02*
X17780D01*
Y69850D01*
X26670D01*
Y69918D01*
X25978Y72502D01*
X24640Y74818D01*
X22748Y76710D01*
X20432Y78048D01*
X17848Y78740D01*
D02*
G37*
G36*
X15240D02*
X15172D01*
X12588Y78048D01*
X10272Y76710D01*
X8380Y74818D01*
X7042Y72502D01*
X6350Y69918D01*
Y69850D01*
X15240D01*
Y78740D01*
D02*
G37*
G36*
X193040D02*
X192972D01*
X190388Y78048D01*
X188072Y76710D01*
X186180Y74818D01*
X184842Y72502D01*
X184150Y69918D01*
Y69850D01*
X193040D01*
Y78740D01*
D02*
G37*
G36*
X204470Y67310D02*
X195580D01*
Y58420D01*
X195648D01*
X198232Y59112D01*
X200548Y60450D01*
X202440Y62342D01*
X203778Y64658D01*
X204470Y67242D01*
Y67310D01*
D02*
G37*
G36*
X193040D02*
X184150D01*
Y67242D01*
X184842Y64658D01*
X186180Y62342D01*
X188072Y60450D01*
X190388Y59112D01*
X192972Y58420D01*
X193040D01*
Y67310D01*
D02*
G37*
G36*
X26670D02*
X17780D01*
Y58420D01*
X17848D01*
X20432Y59112D01*
X22748Y60450D01*
X24640Y62342D01*
X25978Y64658D01*
X26670Y67242D01*
Y67310D01*
D02*
G37*
G36*
X15240D02*
X6350D01*
Y67242D01*
X7042Y64658D01*
X8380Y62342D01*
X10272Y60450D01*
X12588Y59112D01*
X15172Y58420D01*
X15240D01*
Y67310D01*
D02*
G37*
G36*
X195514Y52324D02*
X193106D01*
X190781Y51701D01*
X188696Y50497D01*
X186993Y48794D01*
X185789Y46709D01*
X185166Y44384D01*
Y41976D01*
X185789Y39650D01*
X186993Y37566D01*
X188696Y35863D01*
X190781Y34659D01*
X193106Y34036D01*
X195514D01*
X197840Y34659D01*
X199925Y35863D01*
X201627Y37566D01*
X202831Y39650D01*
X203454Y41976D01*
Y44384D01*
X202831Y46709D01*
X201627Y48794D01*
X199925Y50497D01*
X197840Y51701D01*
X195514Y52324D01*
D02*
G37*
G36*
X17714D02*
X15306D01*
X12981Y51701D01*
X10896Y50497D01*
X9193Y48794D01*
X7989Y46709D01*
X7366Y44384D01*
Y41976D01*
X7989Y39650D01*
X9193Y37566D01*
X10896Y35863D01*
X12981Y34659D01*
X15306Y34036D01*
X17714D01*
X20040Y34659D01*
X22125Y35863D01*
X23827Y37566D01*
X25031Y39650D01*
X25654Y41976D01*
Y44384D01*
X25031Y46709D01*
X23827Y48794D01*
X22125Y50497D01*
X20040Y51701D01*
X17714Y52324D01*
D02*
G37*
G36*
X195648Y27940D02*
X195580D01*
Y19050D01*
X204470D01*
Y19118D01*
X203778Y21702D01*
X202440Y24018D01*
X200548Y25910D01*
X198232Y27248D01*
X195648Y27940D01*
D02*
G37*
G36*
X17848D02*
X17780D01*
Y19050D01*
X26670D01*
Y19118D01*
X25978Y21702D01*
X24640Y24018D01*
X22748Y25910D01*
X20432Y27248D01*
X17848Y27940D01*
D02*
G37*
G36*
X15240D02*
X15172D01*
X12588Y27248D01*
X10272Y25910D01*
X8380Y24018D01*
X7042Y21702D01*
X6350Y19118D01*
Y19050D01*
X15240D01*
Y27940D01*
D02*
G37*
G36*
X193040D02*
X192972D01*
X190388Y27248D01*
X188072Y25910D01*
X186180Y24018D01*
X184842Y21702D01*
X184150Y19118D01*
Y19050D01*
X193040D01*
Y27940D01*
D02*
G37*
G36*
X204470Y16510D02*
X195580D01*
Y7620D01*
X195648D01*
X198232Y8312D01*
X200548Y9650D01*
X202440Y11542D01*
X203778Y13858D01*
X204470Y16442D01*
Y16510D01*
D02*
G37*
G36*
X193040D02*
X184150D01*
Y16442D01*
X184842Y13858D01*
X186180Y11542D01*
X188072Y9650D01*
X190388Y8312D01*
X192972Y7620D01*
X193040D01*
Y16510D01*
D02*
G37*
G36*
X26670D02*
X17780D01*
Y7620D01*
X17848D01*
X20432Y8312D01*
X22748Y9650D01*
X24640Y11542D01*
X25978Y13858D01*
X26670Y16442D01*
Y16510D01*
D02*
G37*
G36*
X15240D02*
X6350D01*
Y16442D01*
X7042Y13858D01*
X8380Y11542D01*
X10272Y9650D01*
X12588Y8312D01*
X15172Y7620D01*
X15240D01*
Y16510D01*
D02*
G37*
%LPD*%
D13*
X132080Y118692D02*
X136578D01*
X121846Y119454D02*
X131318D01*
X136578Y118692D02*
X137160Y118110D01*
X131318Y119454D02*
X132080Y118692D01*
X158750Y118110D02*
X159385Y118745D01*
X177165D01*
X177800Y119380D01*
X121809Y119417D02*
X121846Y119454D01*
X102870Y119380D02*
X102907Y119417D01*
X121809D01*
D29*
X16510Y271780D02*
D03*
Y297180D02*
D03*
X194310Y271780D02*
D03*
Y297180D02*
D03*
Y246380D02*
D03*
Y220980D02*
D03*
Y195580D02*
D03*
Y170180D02*
D03*
Y144780D02*
D03*
Y119380D02*
D03*
Y93980D02*
D03*
Y68580D02*
D03*
Y43180D02*
D03*
Y17780D02*
D03*
X16510Y246380D02*
D03*
Y220980D02*
D03*
Y195580D02*
D03*
Y170180D02*
D03*
Y144780D02*
D03*
Y119380D02*
D03*
Y93980D02*
D03*
Y68580D02*
D03*
Y43180D02*
D03*
Y17780D02*
D03*
D30*
X146366Y114570D02*
D03*
X153670Y142240D02*
D03*
X57150Y123190D02*
D03*
X149860Y20320D02*
D03*
X111760Y11430D02*
D03*
X125730Y284480D02*
D03*
X83820Y295910D02*
D03*
X66421Y29210D02*
D03*
X53340Y33020D02*
D03*
X151130Y34290D02*
D03*
X138430Y200660D02*
D03*
X163830Y297180D02*
D03*
D31*
X137160Y118110D02*
D03*
X158750D02*
D03*
X177800Y119380D02*
D03*
X102870D02*
D03*
X121846Y119454D02*
D03*
X83820Y201930D02*
D03*
X57579Y168069D02*
D03*
X111680Y178990D02*
D03*
X35560Y191770D02*
D03*
M02*
