M48
;Layer_Color=9474304
;FILE_FORMAT=4:4
METRIC,LZ
;TYPE=PLATED
T1F00S00C0.3048
T2F00S00C0.3302
T3F00S00C1.1000
%
T01
X0010287Y0011938
X00121846Y00119454
X0013716Y0011811
X0015875
X001778Y0011938
X0011168Y0017899
X0008382Y0020193
X0003556Y0019177
X00057579Y00168069
T02
X0005334Y0003302
X00066421Y0002921
X0011176Y0001143
X0005715Y0012319
X00146366Y0011457
X0015367Y0014224
X0015113Y0003429
X0014986Y0002032
X0016383Y0029718
X0012573Y0028448
X0008382Y0029591
X0013843Y0020066
T03
X0001651Y0001778
Y0004318
Y0006858
Y0009398
Y0011938
X0019431
Y0009398
Y0006858
Y0004318
Y0001778
Y0014478
Y0017018
Y0019558
Y0022098
Y0024638
Y0027178
Y0029718
X0001651
Y0027178
Y0024638
Y0022098
Y0019558
Y0017018
Y0014478
M30
