G04*
G04 #@! TF.GenerationSoftware,Altium Limited,Altium Designer,22.9.1 (49)*
G04*
G04 Layer_Physical_Order=1*
G04 Layer_Color=255*
%FSLAX44Y44*%
%MOMM*%
G71*
G04*
G04 #@! TF.SameCoordinates,E5F82799-094A-4641-A06E-9C292172CD6F*
G04*
G04*
G04 #@! TF.FilePolarity,Positive*
G04*
G01*
G75*
%ADD12C,0.5080*%
%ADD13C,0.1524*%
%ADD16R,0.7000X0.6000*%
%ADD17R,0.6000X0.7000*%
G04:AMPARAMS|DCode=18|XSize=1.97mm|YSize=0.6mm|CornerRadius=0.15mm|HoleSize=0mm|Usage=FLASHONLY|Rotation=90.000|XOffset=0mm|YOffset=0mm|HoleType=Round|Shape=RoundedRectangle|*
%AMROUNDEDRECTD18*
21,1,1.9700,0.3000,0,0,90.0*
21,1,1.6700,0.6000,0,0,90.0*
1,1,0.3000,0.1500,0.8350*
1,1,0.3000,0.1500,-0.8350*
1,1,0.3000,-0.1500,-0.8350*
1,1,0.3000,-0.1500,0.8350*
%
%ADD18ROUNDEDRECTD18*%
%ADD19R,1.1999X1.3998*%
%ADD20R,0.8000X0.8000*%
%ADD21R,1.3998X1.1999*%
%ADD29C,1.5240*%
%ADD30C,0.6350*%
%ADD31C,0.5588*%
D12*
X74930Y100950D02*
Y101220D01*
Y107800D01*
X74470Y101680D02*
X74930Y101220D01*
X57150Y101680D02*
X74470D01*
X62230Y267320D02*
Y296490D01*
X62222Y297862D02*
Y306904D01*
X61540Y297180D02*
X62222Y297862D01*
X61540Y297180D02*
X62230Y296490D01*
X16510Y297180D02*
X61540D01*
X97940Y130810D02*
X113110D01*
X74930Y107800D02*
X97940Y130810D01*
X113570Y131270D02*
Y138970D01*
X113110Y130810D02*
X113570Y131270D01*
Y138970D02*
X157480Y182880D01*
Y260350D01*
X194310Y297180D01*
X123110Y130810D02*
X138430D01*
X113030Y100950D02*
X113070Y100990D01*
Y130770D01*
X113110Y130810D01*
X62222Y306904D02*
X65198Y309880D01*
X94766D01*
X97742Y298140D02*
X97790Y298092D01*
X94766Y309880D02*
X97742Y306904D01*
X97790Y296680D02*
Y298092D01*
X97742Y298140D02*
Y306904D01*
X107790Y297180D02*
X134740D01*
X100330Y267320D02*
Y294140D01*
X97790Y296680D02*
X100330Y294140D01*
D13*
X137160Y118110D02*
X137649Y118599D01*
X140808D01*
X142240Y120031D02*
X155729D01*
X140808Y118599D02*
X142240Y120031D01*
X157650Y118110D02*
X158750D01*
X155729Y120031D02*
X157650Y118110D01*
X145060Y114570D02*
X146366D01*
X143579Y113089D02*
X145060Y114570D01*
X139323Y113089D02*
X143579D01*
X138430Y112196D02*
X139323Y113089D01*
X138430Y100950D02*
Y112196D01*
X133786Y124460D02*
X158313D01*
X126926Y117350D02*
Y117600D01*
X119380Y109804D02*
X126926Y117350D01*
Y117600D02*
X133786Y124460D01*
X158313D02*
X165100Y131247D01*
X170180Y123190D02*
X175055Y128065D01*
X170180Y100330D02*
Y123190D01*
X175055Y128065D02*
X180016D01*
X177800Y119380D02*
X194310D01*
X180016Y128065D02*
X194310Y142359D01*
X143809Y78425D02*
X167132Y101748D01*
Y124658D01*
X138430Y68580D02*
X170180Y100330D01*
X167132Y124658D02*
X173547Y131073D01*
X163830Y107950D02*
Y125667D01*
X156830Y100950D02*
X163830Y107950D01*
Y125667D02*
X170180Y132017D01*
Y176530D01*
X173547Y131073D02*
Y166305D01*
X177423Y170180D01*
X165100Y131247D02*
Y185420D01*
X153670Y131050D02*
Y142240D01*
X170180Y176530D02*
X179070Y185420D01*
X165100D02*
X175260Y195580D01*
X151130Y100950D02*
X156830D01*
X177423Y170180D02*
X194310D01*
X102870Y118280D02*
Y119380D01*
X100330Y100950D02*
Y115740D01*
X102870Y118280D01*
X119380Y92096D02*
Y109804D01*
X57150Y111680D02*
Y123190D01*
X72310Y295910D02*
X83820D01*
X26670Y94873D02*
Y140005D01*
X27134Y144780D02*
X28848Y146494D01*
X29587Y43180D02*
X30480Y44073D01*
X31373Y140398D02*
X105832D01*
X28848Y146494D02*
X103307D01*
X16510Y43180D02*
X29587D01*
X30480Y139505D02*
X31373Y140398D01*
X30480Y44073D02*
Y139505D01*
X30110Y143446D02*
X104570D01*
X26670Y140005D02*
X30110Y143446D01*
X16510Y144780D02*
X27134D01*
X25777Y93980D02*
X26670Y94873D01*
X16510Y93980D02*
X25777D01*
X138430Y20320D02*
X149860D01*
X99470Y12210D02*
X100250Y11430D01*
X111760D01*
X125730Y267320D02*
Y284480D01*
X87630Y212419D02*
Y217820D01*
X100330Y201930D02*
X109220D01*
X92023Y210237D02*
X100330Y201930D01*
X87630Y212419D02*
X89812Y210237D01*
X92023D01*
X87630Y213677D02*
Y217820D01*
X68580Y202823D02*
Y236220D01*
Y202823D02*
X69473Y201930D01*
X74930D01*
X80010Y207010D02*
X83271D01*
X74930Y201930D02*
X80010Y207010D01*
X83820Y190450D02*
Y201930D01*
Y190450D02*
X84201Y190069D01*
X83271Y207010D02*
X87630Y211369D01*
X194310Y142359D02*
Y144780D01*
X87630Y51450D02*
Y86360D01*
X113644D01*
X87630D02*
Y100950D01*
X105832Y140398D02*
X143891Y178457D01*
X103307Y146494D02*
X125730Y168917D01*
X104570Y143446D02*
X131016Y169892D01*
X120228Y83312D02*
X125730Y88814D01*
X114500Y83312D02*
X120228D01*
X107744Y76556D02*
X114500Y83312D01*
X113644Y86360D02*
X119380Y92096D01*
X113924Y78425D02*
X143809D01*
X113031Y51450D02*
Y77532D01*
X113924Y78425D01*
X204216Y53086D02*
Y181864D01*
X194310Y43180D02*
X204216Y53086D01*
X179070Y185420D02*
X200660D01*
X175260Y195580D02*
X194310D01*
X200660Y185420D02*
X204216Y181864D01*
X197778Y7239D02*
X207264Y16725D01*
X194310Y246380D02*
X207264Y233426D01*
Y16725D02*
Y233426D01*
X138430Y51450D02*
Y68580D01*
X128798Y63586D02*
X132080Y60304D01*
X122662Y63586D02*
X128798D01*
X132080Y42596D02*
Y60304D01*
X107744Y41532D02*
Y76556D01*
Y41532D02*
X109962Y39314D01*
X125730Y88814D02*
Y100950D01*
X141498Y39314D02*
X145844Y43660D01*
Y61368D01*
X100330Y44600D02*
X108664Y36266D01*
X135362Y39314D02*
X141498D01*
X132080Y42596D02*
X135362Y39314D01*
X119380Y42596D02*
Y60304D01*
X122662Y63586D01*
X116098Y39314D02*
X119380Y42596D01*
X109962Y39314D02*
X116098D01*
X145844Y61368D02*
X178456Y93980D01*
X194310D01*
X108664Y36266D02*
X124273D01*
X125730Y37723D01*
X120650Y20480D02*
X121150D01*
X134391Y7239D01*
X197778D01*
X153430Y130810D02*
X153670Y131050D01*
X151130Y34290D02*
Y51450D01*
X100330Y30069D02*
Y44600D01*
X125730Y37723D02*
Y51450D01*
X100330Y44600D02*
Y51450D01*
X99472Y29210D02*
X100330Y30069D01*
X87630Y51450D02*
X100330D01*
X60960Y47640D02*
X64770Y51450D01*
X66421Y29210D02*
X77470D01*
X60960Y20320D02*
Y47640D01*
Y20320D02*
X63833Y17448D01*
X72232D01*
X64770Y51450D02*
X74930D01*
X76900Y12780D02*
X77470Y12210D01*
X72232Y17448D02*
X76900Y12780D01*
X138270Y30480D02*
X138430Y30320D01*
X120650Y30480D02*
X138270D01*
X119761Y7898D02*
Y19591D01*
X115787Y3925D02*
X119761Y7898D01*
X86755Y3925D02*
X115787D01*
X78470Y12210D02*
X86755Y3925D01*
X77470Y12210D02*
X78470D01*
X119761Y19591D02*
X120650Y20480D01*
X119380Y29210D02*
X120650Y30480D01*
X99472Y29210D02*
X119380D01*
X53340Y12780D02*
X76900D01*
X53340Y22780D02*
Y33020D01*
X113030Y245724D02*
X131016Y227738D01*
X143891Y178457D02*
Y227563D01*
X138430Y233024D02*
X143891Y227563D01*
X138430Y233024D02*
Y267320D01*
X131016Y169892D02*
Y227738D01*
X113030Y245724D02*
Y267320D01*
X125730Y168917D02*
Y217820D01*
X105616Y229956D02*
X116098D01*
X118316Y165813D02*
Y227738D01*
X116098Y229956D02*
X118316Y227738D01*
X6604Y205486D02*
Y250483D01*
Y205486D02*
X16510Y195580D01*
X87630Y267320D02*
Y274170D01*
X6604Y250483D02*
X12407Y256286D01*
X68580Y276174D02*
X71862Y279456D01*
X53927Y255184D02*
X65298D01*
X11144Y259334D02*
X49777D01*
X3556Y143725D02*
Y251746D01*
Y143725D02*
X16510Y130771D01*
X71862Y279456D02*
X82344D01*
X16510Y119380D02*
Y130771D01*
X3556Y251746D02*
X11144Y259334D01*
X68580Y258466D02*
Y276174D01*
X65298Y255184D02*
X68580Y258466D01*
X82344Y279456D02*
X87630Y274170D01*
X49777Y259334D02*
X53927Y255184D01*
X74930Y217820D02*
Y267320D01*
Y217820D02*
X87630D01*
X48514Y256286D02*
X68580Y236220D01*
X12407Y256286D02*
X48514D01*
X111286Y158783D02*
X118316Y165813D01*
X59682Y158783D02*
X111286D01*
X48284Y170180D02*
X59682Y158783D01*
X100330Y217820D02*
Y224670D01*
X105616Y229956D01*
X16510Y170180D02*
X48284D01*
X87288Y168068D02*
X100838D01*
X87288Y170223D02*
X89438Y172374D01*
X91594D02*
X97020Y177800D01*
X84201Y168068D02*
X87288D01*
X97020Y177800D02*
X97020D01*
X89438Y172374D02*
X91594D01*
X87288Y168068D02*
Y170223D01*
X97020Y177800D02*
X109220Y190000D01*
X75931Y180340D02*
X90703D01*
X92486Y187736D02*
X94827Y190077D01*
X98797D01*
X99220Y190500D01*
X92486Y182123D02*
Y187736D01*
X67201Y189070D02*
X75931Y180340D01*
X90703D02*
X92486Y182123D01*
X109220Y190500D02*
Y201930D01*
Y190000D02*
Y190500D01*
X57150Y167640D02*
X57579Y168069D01*
X67201D01*
X111680Y178990D02*
X111760Y179070D01*
X111680Y168910D02*
Y178990D01*
X35560Y191770D02*
X43260D01*
X138430Y200660D02*
Y217820D01*
X149740Y297180D02*
X163830D01*
X109220Y201930D02*
Y206761D01*
X113030Y210571D02*
Y217820D01*
X109220Y206761D02*
X113030Y210571D01*
X67201Y189070D02*
Y190069D01*
X100838Y168068D02*
X101680Y168910D01*
X62230Y195040D02*
X65500Y191770D01*
X53260D02*
X65500D01*
X67201Y190069D01*
X62230Y195040D02*
Y217820D01*
X40520Y246380D02*
X62230Y224670D01*
Y217820D02*
Y224670D01*
X16510Y246380D02*
X40520D01*
D16*
X57150Y111680D02*
D03*
Y101680D02*
D03*
X138430Y20320D02*
D03*
Y30320D02*
D03*
X120650Y20480D02*
D03*
Y30480D02*
D03*
X53340Y12780D02*
D03*
Y22780D02*
D03*
D17*
X72310Y295910D02*
D03*
X62310D02*
D03*
X113110Y130810D02*
D03*
X123110D02*
D03*
X111680Y168910D02*
D03*
X101680D02*
D03*
X43260Y191770D02*
D03*
X53260D02*
D03*
X97790Y297180D02*
D03*
X107790D02*
D03*
X109220Y190500D02*
D03*
X99220D02*
D03*
D18*
X74930Y51450D02*
D03*
X87630D02*
D03*
X100330D02*
D03*
X113030D02*
D03*
X125730D02*
D03*
X138430D02*
D03*
X151130D02*
D03*
Y100950D02*
D03*
X138430D02*
D03*
X125730D02*
D03*
X113030D02*
D03*
X100330D02*
D03*
X87630D02*
D03*
X74930D02*
D03*
X62230Y217820D02*
D03*
X74930D02*
D03*
X87630D02*
D03*
X100330D02*
D03*
X113030D02*
D03*
X125730D02*
D03*
X138430D02*
D03*
Y267320D02*
D03*
X125730D02*
D03*
X113030D02*
D03*
X100330D02*
D03*
X87630D02*
D03*
X74930D02*
D03*
X62230D02*
D03*
D19*
X84201Y168068D02*
D03*
Y190069D02*
D03*
X67201Y168069D02*
D03*
Y190069D02*
D03*
D20*
X149740Y297180D02*
D03*
X134740D02*
D03*
X138430Y130810D02*
D03*
X153430D02*
D03*
D21*
X77470Y12210D02*
D03*
X99470D02*
D03*
X77470Y29210D02*
D03*
X99472D02*
D03*
D29*
X16510Y271780D02*
D03*
Y297180D02*
D03*
X194310Y271780D02*
D03*
Y297180D02*
D03*
Y246380D02*
D03*
Y220980D02*
D03*
Y195580D02*
D03*
Y170180D02*
D03*
Y144780D02*
D03*
Y119380D02*
D03*
Y93980D02*
D03*
Y68580D02*
D03*
Y43180D02*
D03*
Y17780D02*
D03*
X16510Y246380D02*
D03*
Y220980D02*
D03*
Y195580D02*
D03*
Y170180D02*
D03*
Y144780D02*
D03*
Y119380D02*
D03*
Y93980D02*
D03*
Y68580D02*
D03*
Y43180D02*
D03*
Y17780D02*
D03*
D30*
X146366Y114570D02*
D03*
X153670Y142240D02*
D03*
X57150Y123190D02*
D03*
X149860Y20320D02*
D03*
X111760Y11430D02*
D03*
X125730Y284480D02*
D03*
X83820Y295910D02*
D03*
X66421Y29210D02*
D03*
X53340Y33020D02*
D03*
X151130Y34290D02*
D03*
X138430Y200660D02*
D03*
X163830Y297180D02*
D03*
D31*
X137160Y118110D02*
D03*
X158750D02*
D03*
X177800Y119380D02*
D03*
X102870D02*
D03*
X121846Y119454D02*
D03*
X83820Y201930D02*
D03*
X57579Y168069D02*
D03*
X111680Y178990D02*
D03*
X35560Y191770D02*
D03*
M02*
